<?xml version="1.0" encoding="UTF-8"?> <svg xmlns="http://www.w3.org/2000/svg" width="160" height="40" viewBox="0 0 160 40" fill="none"><path d="M49.9488 10.3921H54.106V26.9429H49.9488V24.8518C49.4197 25.5658 48.7269 26.1269 47.8702 26.5349C47.0136 26.9429 46.0814 27.147 45.0862 27.147C43.8013 27.147 42.6801 26.8792 41.6849 26.3309C40.7023 25.7826 39.9339 24.9793 39.367 23.9082C38.8001 22.8371 38.5229 21.5748 38.5229 20.0956V10.3793H42.6549V19.4963C42.6549 20.8097 42.9824 21.817 43.6249 22.5311C44.28 23.2451 45.1618 23.5894 46.283 23.5894C47.4041 23.5894 48.3238 23.2324 48.9662 22.5311C49.6213 21.8298 49.9362 20.8097 49.9362 19.4963V10.3793L49.9488 10.3921ZM66.653 18.1065C65.8846 17.7877 64.9146 17.4817 63.7304 17.1756C62.5715 16.8824 61.7148 16.5891 61.1605 16.2958C60.6063 16.0026 60.3291 15.5818 60.3291 15.0207C60.3291 14.5234 60.5307 14.1409 60.9338 13.8604C61.3369 13.5799 61.9164 13.4396 62.6596 13.4396C63.4659 13.4396 64.1083 13.6309 64.5996 14.0261C65.0783 14.4087 65.3555 14.9315 65.4059 15.5945H69.3615C69.2481 13.9241 68.6056 12.5853 67.4467 11.6034C66.2877 10.6216 64.7256 10.1243 62.7856 10.1243C61.4629 10.1243 60.3165 10.3411 59.3465 10.7874C58.3765 11.2209 57.6207 11.8202 57.1042 12.5853C56.5877 13.3376 56.3231 14.1792 56.3231 15.0972C56.3231 16.2193 56.6003 17.0991 57.1672 17.7622C57.734 18.4252 58.4017 18.9098 59.1701 19.2286C59.9386 19.5473 60.9464 19.8534 62.1683 20.1594C63.3525 20.4782 64.2091 20.7714 64.7508 21.0392C65.2925 21.307 65.557 21.715 65.557 22.2506C65.557 22.7478 65.3303 23.1559 64.8894 23.4747C64.4485 23.7934 63.8312 23.9592 63.0502 23.9592C62.2691 23.9592 61.5637 23.7552 61.022 23.3344C60.4803 22.9136 60.1653 22.3908 60.0898 21.7533H55.9326C55.9956 22.7733 56.3357 23.6914 56.953 24.533C57.5703 25.3746 58.4143 26.0376 59.4725 26.5222C60.5307 27.0067 61.74 27.249 63.0753 27.249C64.4107 27.249 65.5067 27.0322 66.4893 26.6114C67.4593 26.1779 68.2151 25.5913 68.7316 24.839C69.2481 24.0867 69.5126 23.2196 69.5126 22.2633C69.4874 21.1667 69.1977 20.2869 68.6434 19.6238C68.0891 18.9608 67.4215 18.4635 66.653 18.1447V18.1065ZM35.8775 14.1919C36.6207 15.4925 36.9861 16.9844 36.9861 18.6803C36.9861 20.3762 36.6081 21.868 35.8523 23.1686C35.0965 24.4692 34.0761 25.4638 32.7785 26.1779C31.4936 26.8792 30.0449 27.2362 28.4576 27.2362C26.8703 27.2362 25.4594 26.8792 24.1997 26.1779C22.9399 25.4766 21.9447 24.4692 21.2267 23.1686C20.5086 21.868 20.1433 20.3762 20.1433 18.6803C20.1433 16.9844 20.5086 15.4925 21.2519 14.1919C21.9951 12.8913 23.0029 11.8967 24.2753 11.1827C25.5602 10.4814 26.9837 10.1243 28.5584 10.1243C30.1331 10.1243 31.5566 10.4814 32.8415 11.1827C34.1264 11.8967 35.1342 12.8913 35.8649 14.1919H35.8775ZM32.7281 18.6675C32.7281 17.0991 32.325 15.8878 31.5062 15.0335C30.6873 14.1792 29.6921 13.7584 28.508 13.7584C27.3238 13.7584 26.3412 14.1792 25.535 15.0335C24.7288 15.8878 24.3382 17.0864 24.3382 18.6675C24.3382 20.2486 24.7288 21.4472 25.5098 22.3016C26.2908 23.1431 27.2608 23.5767 28.445 23.5767C29.1883 23.5767 29.8937 23.3981 30.5614 23.0284C31.2164 22.6586 31.7455 22.1103 32.1361 21.3707C32.5266 20.6312 32.7281 19.7386 32.7281 18.6803V18.6675ZM12.4463 21.6003C13.7438 17.6729 13.58 17.0354 11.766 14.1919C10.0024 11.4249 2.97299 0.484539 2.69585 0L0 5.73797L11.5518 24.3162C11.7282 23.7934 11.8542 23.4109 12.4463 21.6003ZM85.4106 13.6819C86.242 13.6819 86.9349 13.8859 87.4892 14.2939C88.0561 14.7019 88.4466 15.263 88.6859 15.977H93.1454C92.6919 14.1281 91.7975 12.6873 90.4748 11.6544C89.152 10.6344 87.464 10.1116 85.4358 10.1116C83.8611 10.1116 82.4628 10.4686 81.2408 11.1699C80.0189 11.884 79.0615 12.8785 78.3812 14.1537C77.6884 15.4415 77.3482 16.9334 77.3482 18.6548C77.3482 20.3762 77.6884 21.868 78.3812 23.1559C79.0741 24.4437 80.0189 25.4383 81.2408 26.1396C82.4628 26.8409 83.8611 27.198 85.4358 27.198C87.4388 27.198 89.1143 26.6752 90.4496 25.6168C91.7849 24.5585 92.6793 23.1304 93.1328 21.3452H88.6733C88.1568 22.8626 87.0735 23.6149 85.398 23.6149C84.2138 23.6149 83.2816 23.1814 82.5888 22.3143C81.8959 21.4472 81.5558 20.2231 81.5558 18.6548C81.5558 17.0864 81.8959 15.8368 82.5888 14.9697C83.2816 14.1026 84.2138 13.6691 85.398 13.6691L85.4106 13.6819ZM118.265 26.7517H122.397V4.64138H118.265V26.7517ZM71.5534 26.9429H75.6854V10.3921H71.5534V26.9429ZM155.603 10.2008L151.32 21.766L147.1 10.2008H142.464L149.015 26.3436L145.475 34.5936H149.872L160 10.2136H155.603V10.2008ZM136.922 10.2008H141.079V26.7517H136.922V24.329C136.392 25.1068 135.662 25.7443 134.717 26.2544C133.785 26.7644 132.701 27.0194 131.479 27.0194C130.106 27.0194 128.847 26.6624 127.713 25.9484C126.579 25.2343 125.685 24.2142 125.03 22.9136C124.374 21.613 124.034 20.1084 124.034 18.4125C124.034 16.7166 124.362 15.2502 125.03 13.9624C125.697 12.6745 126.579 11.6672 127.713 10.9786C128.847 10.2773 130.106 9.93306 131.505 9.93306C132.727 9.93306 133.797 10.1881 134.704 10.6854C135.624 11.1827 136.355 11.8075 136.909 12.5725V10.2136L136.922 10.2008ZM136.922 18.4762C136.922 17.4562 136.72 16.5891 136.329 15.8623C135.939 15.1355 135.41 14.5744 134.742 14.1919C134.074 13.8094 133.356 13.6054 132.588 13.6054C131.82 13.6054 131.114 13.7966 130.459 14.1792C129.804 14.5617 129.287 15.11 128.884 15.8368C128.481 16.5636 128.28 17.4307 128.28 18.4252C128.28 19.4198 128.481 20.2869 128.884 21.0392C129.287 21.7915 129.817 22.3653 130.484 22.7606C131.139 23.1559 131.845 23.3599 132.601 23.3599C133.356 23.3599 134.087 23.1686 134.755 22.7733C135.422 22.3908 135.952 21.8298 136.342 21.103C136.733 20.3762 136.934 19.5091 136.934 18.489L136.922 18.4762ZM115.859 9.02773C116.425 10.0096 116.703 11.1062 116.703 12.343C116.703 13.4651 116.438 14.5107 115.922 15.4798C115.405 16.4616 114.586 17.2394 113.465 17.8387C112.344 18.438 110.946 18.7313 109.258 18.7313H105.806V26.7389H101.674V5.89098H109.258C110.857 5.89098 112.205 6.1715 113.327 6.73255C114.448 7.29359 115.292 8.05865 115.846 9.02773H115.859ZM112.445 12.3558C112.445 10.3283 111.324 9.30826 109.081 9.30826H105.806V15.3777H109.081C110.228 15.3777 111.072 15.11 111.613 14.5872C112.168 14.0644 112.445 13.3121 112.445 12.3558ZM73.6572 3.51929C72.9265 3.51929 72.3219 3.7488 71.8432 4.22059C71.3645 4.69238 71.1251 5.26618 71.1251 5.96748C71.1251 6.66879 71.3645 7.24259 71.8432 7.71438C72.3219 8.18616 72.9265 8.41568 73.6572 8.41568C74.3878 8.41568 74.9925 8.18616 75.4712 7.71438C75.9499 7.24259 76.1893 6.66879 76.1893 5.96748C76.1893 5.26618 75.9499 4.69238 75.4712 4.22059C74.9925 3.7488 74.3878 3.51929 73.6572 3.51929ZM30.0071 6.66879C26.9459 5.26618 24.6154 0.293274 21.2015 0L11.0479 32.3749L11.4133 34.262C10.607 32.9869 8.98197 32.0944 7.07976 32.0944C4.38391 32.0944 2.20455 33.8668 2.20455 36.0472C2.20455 38.2276 4.38391 40 7.07976 40C8.41508 40 9.62444 39.5665 10.5063 38.8524C11.1235 38.4189 11.6652 37.8451 11.9676 37.1438L22.0707 5.12592L22.7132 2.97099V4.57762C24.8421 8.08416 31.0527 7.70163 34.6177 7.85464C34.6177 7.85464 31.4558 7.51036 30.0197 6.66879H30.0071Z" fill="#FEF7F7"></path></svg> 