<svg xmlns="http://www.w3.org/2000/svg" id="Layer_1" viewBox="0 0 500 200"><defs><style>.cls-1{fill:#000;stroke-width:0px;}</style></defs><path class="cls-1" d="M236.19,92.68c-1.6,7.07-4.64,13.25-9.74,18.36-8.41,8.43-21.2,11.13-31.37,6.42-2.46-1.14-4.66-2.82-7.09-4.32v5.57h-21.73V24.81h22.07v29.5c9.92-5.5,19.91-5.44,29.8-.81,9.98,4.67,15.49,13.03,17.87,23.66,5.22-17.07,16.11-27.02,34.34-27.46,12.95-.31,28.56,8.62,33.36,27.23,2.48-10.95,7.85-19.55,18.18-24.06,10.19-4.44,20.12-4.03,29.42,3.09v-4.64h22.17v67.38h-22.09v-3.53c-9.78,5.91-19.72,6.16-29.7,1.66-10.09-4.55-15.72-12.74-18.05-23.47-6.39,18.15-18.67,27.69-38.33,25.97-7.17-.62-13.39-3.87-18.67-8.78-5.26-4.89-8.64-10.92-10.43-17.87ZM349.53,84.8c.05-7.14-5.59-12.93-12.65-13-7.15-.07-12.94,5.62-13.06,12.81-.11,7,5.83,12.95,12.95,12.95,6.93,0,12.7-5.77,12.75-12.77ZM201.44,72.45c-7.15-.05-12.99,5.73-12.98,12.86,0,6.96,5.74,12.74,12.71,12.82,7.17.08,12.99-5.63,13.04-12.8.04-7.08-5.66-12.84-12.76-12.89ZM282.78,84.2c-.03-7.08-5.77-12.78-12.87-12.8-7.14-.01-12.85,5.79-12.8,12.99.05,7.12,5.73,12.7,12.91,12.69,7.06,0,12.79-5.8,12.76-12.88Z"></path><path class="cls-1" d="M486.71,118.7h-21.73v-5.67c-2.33,1.48-4.38,3.08-6.67,4.19-10.72,5.18-24.12,2.22-32.73-7.09-13.79-14.9-12.43-40.66,3.11-52.81,10.03-7.84,21.24-9.33,33.12-4.41.89.37,1.71.91,2.77,1.48v-29.64h22.13v93.95ZM438.67,85.18c.03,7.11,5.76,12.83,12.84,12.81,7.04-.01,12.86-5.85,12.83-12.86-.04-7.17-5.86-12.97-12.96-12.91-7.07.07-12.73,5.84-12.71,12.95Z"></path><path class="cls-1" d="M34.14,112.8v5.92H12.46V24.85h22.04v29.62c3.29-2.09,6.6-3.33,10.17-3.87,18.06-2.76,34.3,8.83,37.51,26.86,1.88,10.6.24,20.51-6.02,29.44-7.66,10.9-21.49,15.64-33.21,11.24-2.58-.97-4.87-2.73-7.28-4.14-.45-.27-.83-.65-1.52-1.19ZM47.57,72.46c-7.12-.01-12.91,5.68-12.93,12.72-.03,7.09,5.69,12.92,12.72,12.97,7.17.05,12.98-5.68,13.02-12.83.03-7.05-5.73-12.84-12.8-12.86Z"></path><path class="cls-1" d="M112.31,24.75h22.06v93.93h-22.06V24.75Z"></path><path class="cls-1" d="M139.16,24.74h21.94v93.99h-21.94V24.74Z"></path><path class="cls-1" d="M400.43,118.76h-22.19c-.03-.63-.09-1.22-.09-1.8,0-21.32.01-42.64-.03-63.95,0-1.48.33-1.97,1.9-1.95,6.71.09,13.43.04,20.32.04v6.28c3.82-4.85,8.86-6.7,14.83-6.85v23.31c-.83,0-1.68,0-2.53,0-7.78.02-12.15,4.36-12.19,12.23-.05,10.19-.01,20.38-.01,30.57v2.12Z"></path><path class="cls-1" d="M107.54,118.75h-22.07V51.22h22.07v67.53Z"></path><path class="cls-1" d="M272.21,137.13h10.71c2.16,9,4.34,18.04,6.51,27.08.11,0,.22,0,.33,0,.83-3.21,1.67-6.43,2.49-9.64,1.39-5.38,2.79-10.76,4.12-16.15.26-1.05.67-1.42,1.76-1.4,3.03.07,6.05.03,9.24.03,2.35,9.14,4.69,18.22,7.03,27.29.09,0,.18-.02.27-.03,1.57-6.52,3.14-13.05,4.71-19.57.53-2.19,1.01-4.4,1.62-6.57.12-.44.69-1.06,1.07-1.07,3.07-.09,6.15-.05,9.41-.05-.55,2.14-1.05,4.1-1.57,6.06-2.98,11.11-5.99,22.21-8.93,33.32-.34,1.27-.82,1.8-2.21,1.73-2.75-.13-5.51-.1-8.27-.02-1.24.04-1.8-.28-2.14-1.58-2.01-7.66-4.14-15.29-6.23-22.93-.05-.2-.14-.39-.38-1.02-.94,3.41-1.78,6.42-2.61,9.43-1.36,4.93-2.73,9.86-4.07,14.8-.23.84-.51,1.32-1.52,1.3-3.03-.06-6.06.02-9.09-.07-.48-.01-1.26-.52-1.38-.95-3.69-13.24-7.31-26.51-10.95-39.77-.01-.05.02-.11.06-.24Z"></path><path class="cls-1" d="M59.66,178.05h-9.45v-27.4c-.12-.02-.24-.04-.36-.06-.7,2.05-1.39,4.1-2.09,6.16-2.25,6.67-4.53,13.33-6.73,20.01-.36,1.09-.87,1.46-1.99,1.41-2.15-.09-4.3-.09-6.45,0-1.13.05-1.62-.34-1.98-1.42-2.74-8.3-5.55-16.59-8.34-24.87-.15-.45-.34-.89-.81-1.31v27.48h-9v-40.98c3.45,0,6.85,0,10.25,0q4.44,0,5.83,4.25c2.45,7.53,4.89,15.06,7.34,22.59.05.14.14.26.36.66.89-2.68,1.73-5.15,2.53-7.62,2.03-6.22,4.02-12.46,6.08-18.67.15-.47.69-1.15,1.05-1.16,4.56-.08,9.12-.05,13.75-.05v40.99Z"></path><path class="cls-1" d="M420.67,178.36v-41.3c6.53.14,13.05-.71,19.31,1.69,7.75,2.97,12,9.74,11.89,18.93-.08,6.8-2.12,12.79-8.06,16.64-2.39,1.54-5.25,2.81-8.03,3.19-4.93.69-9.96.6-15.11.85ZM430.67,146.02v23.32c5.55.09,9.5-2.99,10.45-8.28.33-1.87.43-3.86.23-5.75-.66-6.15-5.01-9.87-10.68-9.29Z"></path><path class="cls-1" d="M381.77,137.05c4.19,0,8.31-.06,12.42.03,2.08.04,4.2.15,6.22.59,4.5.97,7.19,3.85,8,8.39.95,5.31-.03,9.98-4.84,13.41,3.06,6.15,6.11,12.27,9.3,18.65-3.53,0-6.76.05-9.99-.06-.44-.01-1.02-.72-1.27-1.23-2.25-4.59-4.53-9.18-6.59-13.85-.76-1.73-1.78-1.96-3.48-1.51v16.57h-9.77v-40.98ZM391.65,153.19c2.2-.22,4.53.81,6.16-1.42.92-1.26.92-3.45,0-4.68-1.64-2.2-3.97-1.22-6.17-1.45v7.55Z"></path><path class="cls-1" d="M105.06,137.19c0,6.29.08,12.46-.03,18.62-.07,3.84.02,7.76-.75,11.49-1.4,6.78-6.88,11.06-13.8,11.43-3.42.18-6.84.22-10.1-1.11-6.02-2.47-8.76-7.37-8.98-13.48-.32-8.86-.11-17.73-.12-26.6,0-.1.08-.19.16-.39h9.73c0,.59,0,1.16,0,1.74,0,7.27,0,14.54,0,21.82,0,.66,0,1.32.04,1.98.28,4.42,2.82,6.88,7.06,6.85,4.05-.03,6.69-2.6,6.79-6.93.12-5.78.04-11.57.05-17.35,0-2.64,0-5.28,0-8.06h9.94Z"></path><path class="cls-1" d="M269.81,178.13c-3.23,0-6.36.04-9.49-.05-.4-.01-.98-.6-1.15-1.05-.93-2.41-1.81-4.84-2.6-7.3-.32-.98-.74-1.41-1.83-1.38-3.41.07-6.83.07-10.24,0-1.01-.02-1.46.32-1.76,1.26-.78,2.46-1.69,4.88-2.48,7.34-.28.88-.71,1.2-1.64,1.19-2.79-.06-5.58-.02-8.56-.02,1.85-5.32,3.61-10.4,5.39-15.47,2.81-8.04,5.66-16.08,8.42-24.14.39-1.13.88-1.54,2.09-1.49,2.58.1,5.18-.02,7.76.07.5.02,1.29.45,1.44.88,4.92,13.18,9.79,26.39,14.65,39.59.04.1,0,.21,0,.56ZM253.17,159.92c-1.19-3.39-2.29-6.55-3.55-10.14-1.27,3.67-2.37,6.84-3.5,10.14h7.05Z"></path><path class="cls-1" d="M333.88,178.12c3.12-8.92,6.12-17.53,9.13-26.14,1.6-4.57,3.23-9.12,4.78-13.7.32-.93.75-1.27,1.74-1.25,3.02.07,6.05.02,9.16.02,5.05,13.65,10.07,27.24,15.18,41.06-3.43,0-6.62.04-9.8-.05-.39-.01-.94-.64-1.11-1.1-.92-2.41-1.77-4.86-2.59-7.31-.29-.88-.68-1.33-1.73-1.31-3.47.07-6.94.06-10.41,0-.95-.02-1.37.33-1.65,1.19-.81,2.51-1.66,5.01-2.59,7.48-.17.45-.75,1.04-1.15,1.05-2.91.09-5.82.05-8.97.05ZM349.96,159.85h7.03c-1.17-3.33-2.28-6.48-3.53-10.05-1.26,3.62-2.35,6.77-3.49,10.05Z"></path><path class="cls-1" d="M460.07,165.3h8.99c.27,1.01.41,2,.79,2.89.82,1.94,3,2.71,5.17,1.94,1.85-.65,2.94-2.5,2.07-4.36-.54-1.17-1.77-2.23-2.95-2.84-2.43-1.27-5.12-2.05-7.55-3.32-7.52-3.92-8.62-15.16-2.08-20.43,4.32-3.48,12.72-3.87,17.32-.78,3.54,2.37,4.47,5.96,4.47,9.92,0,.29-.56.84-.87.84-2.69.07-5.39.04-8.12.04-.2-.78-.31-1.49-.57-2.14-.62-1.58-1.82-2.27-3.5-2.18-1.48.09-2.56.76-2.93,2.22-.39,1.56.15,2.92,1.56,3.66,1.75.92,3.6,1.62,5.42,2.4.96.41,1.96.74,2.9,1.19,7.24,3.51,7.93,8.51,7.05,14.42-.86,5.85-5.81,9.74-12.08,9.96-2.02.07-4.11.09-6.08-.3-6.41-1.24-9.97-6.49-9.02-13.15Z"></path><path class="cls-1" d="M115.03,165.33h9.07c.24,1,.37,1.94.7,2.79.62,1.61,2.11,2.43,4,2.26,1.6-.14,2.87-.8,3.35-2.46.5-1.72-.07-3.27-1.64-4.29-.73-.47-1.55-.83-2.36-1.18-1.82-.78-3.68-1.47-5.48-2.29-6.4-2.93-9.17-9.93-6.54-16.46,1.15-2.84,3.12-4.92,5.95-6.09,4.44-1.84,8.94-1.85,13.33.05,4.25,1.83,6.6,6.73,5.66,11.44h-8.8c-.13-.51-.25-1.08-.42-1.64-.5-1.72-1.64-2.59-3.37-2.58-1.53.01-2.67.62-3.16,2.15-.47,1.46.13,3.08,1.75,3.87,2.26,1.12,4.65,1.99,6.98,2.96,4.07,1.68,7.18,4.22,8.19,8.78,1.91,8.71-3.59,15.88-12.5,16.15-1.76.05-3.55.08-5.27-.22-6.63-1.18-10.24-6.24-9.43-13.23Z"></path><path class="cls-1" d="M207.87,141.32c-1.89,2.4-3.79,4.82-5.79,7.36-3.14-2.59-6.64-3.63-10.63-2.79-2.54.54-4.58,1.81-6.18,3.83-3.55,4.53-3.25,12.14.65,16.38,4.03,4.37,9.9,4.6,16.19.52,1.9,2.28,3.81,4.58,5.71,6.86-6.77,7.56-22.12,6.87-29.42-.41-8.09-8.07-8.03-22.9.28-30.92,7.63-7.37,22.65-7.83,29.18-.83Z"></path><path class="cls-1" d="M96.53,21.15c7.27,0,12.84,5.58,12.82,12.86-.02,7.17-5.77,12.87-12.95,12.84-7.09-.04-12.83-5.75-12.85-12.79-.02-7.32,5.59-12.9,12.97-12.91Z"></path><path class="cls-1" d="M162.48,178.02c-.31.04-.57.1-.83.1-2.91,0-5.83,0-8.88,0v-40.98h9.71v40.88Z"></path></svg>