<svg xmlns="http://www.w3.org/2000/svg" id="Layer_1" viewBox="0 0 500 200"><defs><style>.cls-1{fill:#000;stroke-width:0px;}</style></defs><path class="cls-1" d="M428.17,176.55c-4.65-.66-9.4-1.33-14.15-2-6.81-.96-13.61-1.91-20.42-2.86-7-.98-14-1.97-21-2.95-1.4-.2-2.8-.38-4.21-.52-1.23-.13-1.42-.63-.83-1.7,4.6-8.42,9.18-16.86,13.76-25.29.94-1.73,1.94-3.44,2.78-5.21.56-1.18,1.27-1.63,2.6-1.44,5.05.72,10.12,1.35,15.18,2.03,6.94.93,13.94,1.6,20.81,2.9,5.76,1.09,11.24-.04,16.82-.79,6.65-.9,13.31-1.67,19.94-2.7,3.64-.57,7.31-.94,10.95-1.54,1.35-.22,1.91.3,2.46,1.31,3.58,6.67,7.16,13.34,10.77,20,1.96,3.63,3.95,7.24,5.93,10.85.51.93.43,1.44-.79,1.59-7.69,1-15.37,2-23.04,3.08-9.8,1.39-19.58,2.87-29.38,4.28-2.67.38-5.37.64-8.18.97Z"></path><path class="cls-1" d="M461.18,119.01c0,3.58-.04,7.15.02,10.73.02,1.33-.38,2.05-1.78,2.24-7.25.98-14.5,2.01-21.75,3.03-1.7.24-3.43.4-5.1.77-4.66,1.04-9.17-.25-13.72-.84-6.89-.89-13.75-1.97-20.63-2.89-1.72-.23-2.39-.87-2.37-2.7.11-6.97.07-13.93.02-20.9,0-1.48.23-2.03,1.98-1.76,9.29,1.43,18.59,2.74,27.9,4.01,4.41.6,8.69-.64,13.02-1.17,5.37-.65,10.74-1.39,16.1-2.13,1.58-.22,3.14-.55,4.72-.78,1.42-.21,1.6.37,1.6,1.46,0,3.64,0,7.28,0,10.91Z"></path><path class="cls-1" d="M426.41,33.03c-.27,6.07-1.5,11.33-3.38,16.43-2.76,7.5-6.54,14.48-11.49,20.75-3.91,4.95-8.19,9.57-14.15,12.13-6.16,2.65-9.99-.7-10.46-6.79-.79-10.11,2.73-19.11,7.26-27.82,3.69-7.1,8.32-13.52,14.33-18.86,2.4-2.13,5.04-3.91,8.15-4.93,4.71-1.53,8.36.57,9.24,5.49.25,1.38.61,2.78.52,3.6Z"></path><path class="cls-1" d="M453.09,100.24c1.29-2.65,2.96-5.01,2.78-8.04-.12-2.12-.66-2.68-2.73-2.38-6.57.95-13.12,2.02-19.7,2.85-1.46.18-2.01,1.29-3.02,1.89-2.08,1.24-3.33,1.1-4.74-.73-2.13-2.75-.65-7.13,2.55-7.62.86-.13,1.75,0,2.25.57,1.84,2.13,3.86.97,5.91.6,2.42-.44,4.87-.64,7.31-.98,3.02-.43,6.03-.89,9.23-1.37-1.71-2.57-4.07-3.89-6.64-4.72-6.21-2.02-12.62-3.05-19.09-3.91-4.22-.56-8.46-.52-12.68-.9-2.02-.18-1.43-.86-.66-1.82,3.44-4.28,6.36-8.91,8.87-13.78,1.86-3.6,3.48-7.32,4.71-11.2.15-.48.14-1.26.77-1.35.74-.1.92.7,1.25,1.18,2.01,2.94,4.19,5.77,6.55,8.44,3.79,4.28,7.85,8.3,12.28,11.91,3.37,2.74,7,5.17,10.06,8.28,5.79,5.88,7.48,15.66,4.1,23.13-.46,1.02-.96,1.51-2.25,1.22-2.3-.52-4.77-.08-7.11-1.26Z"></path><path class="cls-1" d="M428.72,106.2c-6.22.14-12.43,0-18.57-1.18-1.01-.19-2.37-.31-2.63-1.35-.38-1.52-.57-3.28.1-4.72.5-1.06,2.02-1.16,3.13-1.31,3.17-.41,6.36-.67,9.55-.9,5.6-.41,11.2-.23,16.8,0,3.44.14,6.87.44,10.23,1.21,2.31.52,2.31.8,2.39,4.33.04,1.98-1.21,2.4-2.62,2.7-3.86.8-7.78,1.21-11.73,1.22-2.22,0-4.44,0-6.66,0Z"></path><path class="cls-1" d="M241.7,139.52c1.54-5.18,2.84-9.62,4.18-14.05.3-.98.39-2.41,1.79-2.25,1.14.13,1.51,1.33,1.81,2.41,1.16,4.06,2.37,8.11,3.56,12.16.25,0,.5.01.75.02.92-3.28,1.83-6.56,2.78-9.82.37-1.29.77-2.59,1.3-3.82.25-.59.79-1.24,1.61-.88.75.33,1.27.95.99,1.87-1.82,6.04-3.63,12.07-5.49,18.09-.25.79-.57,1.83-1.7,1.7-.98-.12-1.32-1.01-1.57-1.89-1.3-4.57-2.61-9.14-4.02-14.04-1.24,1.88-1.33,3.92-1.92,5.75-.83,2.59-1.45,5.25-2.22,7.86-.3,1.01-.64,2.24-1.89,2.34-1.31.1-1.38-1.25-1.64-2.09-1.75-5.75-3.4-11.52-5.11-17.28-.28-.96-.14-1.97.73-2.26.97-.32,1.53.61,1.79,1.49,1.35,4.63,2.68,9.28,4.25,14.72Z"></path><path class="cls-1" d="M305.01,133.93c0-2.71.01-5.43,0-8.14,0-1.91.84-2.87,2.83-2.8,1.35.05,2.71.01,4.07-.04,4.2-.15,7.84,1.2,9.84,4.96,2.27,4.27,2.2,8.8-.47,13-2,3.14-5.14,4.33-8.73,4.3-7.84-.06-7.59,1.1-7.51-7.49.01-1.26,0-2.52,0-3.78h-.03ZM307.69,134.24c0,1.07,0,2.14,0,3.21.03,6.19-.7,5,5.35,5.16,3.63.1,6.02-1.7,7.01-4.99,1.03-3.41,1.03-6.73-1.43-9.62-2.6-3.05-6.2-2.19-9.53-2.27-1.37-.03-1.4,1.09-1.4,2.09,0,2.14,0,4.28,0,6.42Z"></path><path class="cls-1" d="M334.51,145.32c-4.01,0-7.36-2.31-7.96-5.46-.17-.91-.27-1.91.75-2.24,1.07-.35,1.4.52,1.76,1.43,1.45,3.69,6.54,5.04,9.71,2.64,1.82-1.37,1.68-4.22-.35-5.34-1-.55-2.17-.81-3.27-1.17-1.48-.48-3-.82-4.44-1.4-2.33-.93-4.06-2.56-3.85-5.23.22-2.93,2.16-4.77,4.9-5.52,3.4-.94,6.58-.52,9.03,2.36.43.51.82,1.11,1.03,1.73.32.92.59,2.03-.48,2.62-1.34.75-1.79-.58-2.07-1.35-1.11-3.06-3.48-3.42-6.15-3-1.98.31-3.6,1.48-3.57,3.61.03,1.94,1.83,2.57,3.47,2.99,1.5.39,3.06.59,4.54,1.05,3.73,1.16,5.75,3.76,5.34,6.67-.4,2.83-3.58,5.4-6.96,5.62-.48.03-.97,0-1.46,0Z"></path><path class="cls-1" d="M283.65,133.83c0-2.62.13-5.25-.04-7.86-.13-2.05.75-2.95,2.62-2.99,2.52-.06,5.07-.15,7.58.07,5.22.46,7.77,5.57,5.02,10.05-.69,1.12-.89,1.92-.25,3.15,1.21,2.34.61,4.96.77,7.46.04.56-.05,1.25-.8,1.34-.78.09-1.29-.44-1.56-1.09-.58-1.4-.29-2.89-.24-4.33.07-2.34-1.17-3.34-3.3-3.58-.1-.01-.19-.01-.29-.02q-6.69-.62-6.78,6c-.02,1.25.13,2.95-1.59,2.84-1.37-.09-1.24-1.67-1.21-2.87.05-2.72.02-5.44.02-8.15h.07ZM290.3,133.56c1.57-.08,3.03.16,4.46-.31,1.56-.51,2.37-1.67,2.72-3.13.36-1.48-.4-2.64-1.51-3.55-.98-.8-8.07-1.3-9.11-.67-.23.14-.53.38-.56.6-.26,2.12-.65,4.38.13,6.32.66,1.64,2.64.38,3.86.74Z"></path><path class="cls-1" d="M233.34,143.45c-.05.56.09,1.24-.58,1.52-.63.27-1.15-.11-1.51-.58-.35-.46-.63-.98-.87-1.51-2.29-5-3.09-5.42-8.53-4.74-1.12.14-1.75.59-2.09,1.66-.38,1.2-.82,2.4-1.38,3.53-.42.82-.99,2.02-2.11,1.54-1.14-.49-.67-1.64-.31-2.56,1.52-3.88,3.04-7.77,4.58-11.65.83-2.08,1.6-4.18,2.58-6.19.82-1.68,2.05-1.95,2.85,0,2.5,6.11,4.88,12.27,7.3,18.42.07.18.06.38.09.58ZM224.49,127.12c-1.01,2.54-1.75,4.51-2.59,6.44-.72,1.68-.23,2.37,1.57,2.23.68-.05,1.36-.1,2.03-.04,1.98.19,2.15-.72,1.51-2.27-.77-1.86-1.49-3.75-2.53-6.36Z"></path><path class="cls-1" d="M279.3,143.68c-.01.5-.11.98-.59,1.24-.66.36-1.27-.03-1.52-.47-.62-1.08-1.24-2.23-1.52-3.43-.55-2.34-1.89-3.23-4.22-2.89-.67.1-1.38.12-2.03,0-2.37-.43-3.54.63-4.23,2.84-.48,1.52-.74,4.4-2.82,3.58-2.27-.89-.07-3.07.42-4.48,1.76-5.03,3.83-9.94,5.77-14.91.32-.83.57-1.71,1.65-1.79.79-.06,1.33.45,1.59,1.08,2.51,6.2,4.97,12.42,7.43,18.64.07.17.05.38.07.57ZM270.38,127.24c-.73,1.78-1.3,2.98-1.7,4.23-.4,1.25-1.71,2.66-.92,3.73.99,1.32,2.91.24,4.39.55.18.04.39,0,.57-.07.51-.19.83-.55.61-1.11-.9-2.28-1.83-4.55-2.96-7.33Z"></path><path class="cls-1" d="M234.58,68.98c-3.85.04-7.71.1-11.56-.08-1.65-.08-2.46.39-3.21,1.87-4.37,8.63-8.86,17.21-13.34,25.79-.35.67-.49,1.72-1.58,1.64-.93-.07-.94-1.04-1.27-1.65-4.69-8.56-9.36-17.14-14.01-25.72-.52-.96-.98-1.96-2.25-1.97-4.42-.02-8.84.02-13.26,0-.84,0-1.55.25-1.55,1.14,0,.81.61,1.36,1.46,1.38,1.23.03,2.47.05,3.69-.06,1.89-.17,2.62.52,2.6,2.5-.09,8.77-.02,17.54-.08,26.31-.03,4.57-1.64,6.19-5.98,6.2-.91,0-2.14-.19-2.16.98-.02,1.38,1.31,1.14,2.27,1.14,4.6.02,9.2.03,13.8.04.93,0,2.28.39,2.3-1.05.02-1.46-1.34-1.07-2.27-1.09-4.25-.09-5.59-1.38-5.62-5.67-.05-6.9-.02-13.8,0-20.7,0-.76-.35-1.86.65-2.15,1.22-.34,1.35.96,1.75,1.66,5.16,9.32,10.29,18.67,15.44,28,.42.76.77,1.97,1.69,1.85.79-.1,1.21-1.21,1.63-2.04,4.59-9.07,9.19-18.13,13.85-27.17.56-1.09.79-3.16,2.15-2.89,1.63.32.62,2.25.63,3.4.11,7.72.02,15.44.11,23.16.02,1.92-.61,2.74-2.55,2.57-1.14-.1-2.3-.04-3.45-.09-.75-.03-1.42.23-1.48.97-.08.91.64,1.24,1.47,1.24,1.07,0,2.14-.05,3.2-.05,5.51,0,11.01.02,16.52.02.79,0,1.82.24,1.86-1,.05-1.44-1.06-1.15-1.94-1.14-.82.01-1.65-.04-2.46.04-2.12.23-2.92-.61-2.87-2.8.13-4.93.04-9.86.04-14.79h.01c0-4.03,0-8.05,0-12.08q0-5.45,5.35-5.58c.16,0,.33,0,.49,0,.91,0,1.8-.25,1.68-1.29-.1-.79-.93-.88-1.75-.87Z"></path><path class="cls-1" d="M300.08,106.32c-.98.05-1.98-.05-2.96.06-2.05.22-2.77-.65-2.73-2.68.09-5.01.03-10.02.03-15.03,0-3.94,0-7.89,0-11.83q.01-5.45,5.46-5.7c.85-.04,1.82.02,1.76-1.16-.06-1.09-.87-1.05-1.8-1.03-2.94.09-5.89.14-8.82-.01-4.48-.23-4.47-.3-6.51,3.79-.44.88-.94,1.73-1.4,2.6-3.7,7.14-7.39,14.28-11.09,21.42-.96,1.85-1.54,1.88-2.64.16-.22-.35-.42-.7-.62-1.06-4.54-8.36-9.08-16.72-13.59-25.1-.54-1-1.1-1.88-2.34-1.87-4.43.05-8.85.14-13.28.22-.72.01-1.34.19-1.32,1.09.02.9.68,1.01,1.37,1.04,1.31.04,2.63.16,3.93.09,1.7-.09,2.3.56,2.29,2.3-.07,8.79,0,17.58-.03,26.37-.01,5.09-1.13,6.2-6.19,6.35-.73.02-1.59-.21-1.6.94,0,1.18.81,1.2,1.71,1.2,4.77-.02,9.53-.01,14.3,0,.91,0,2.07.12,2.05-1.13-.02-1.06-1.15-.95-1.95-1.01-5.13-.38-5.88-1.16-5.9-6.33-.03-7.06-.03-14.13-.04-21.19,0-.69-.46-1.68.4-1.94.94-.29,1.03.83,1.36,1.42,5.37,9.69,10.72,19.39,16.1,29.08.41.73.55,1.9,1.76,1.77.99-.1,1.13-1.1,1.49-1.8,4.75-9.27,9.48-18.56,14.25-27.82.36-.71.46-2.02,1.71-1.72,1.2.29.79,1.48.8,2.31.03,6.98.04,13.97.02,20.95-.02,5.82.73,5.32-5.22,5.3-.93,0-2.3-.33-2.25,1.12.04,1.16,1.3,1,2.19,1,4.6,0,9.2-.02,13.81-.03,1.81,0,3.62.01,5.42.05.88.02,1.88-.1,1.91-1.08.03-1.02-.95-1.13-1.84-1.09Z"></path><path class="cls-1" d="M356.25,70.01c-.09-.87-.59-1.02-1.54-.99-4.76.12-9.53.03-14.29.11-.98.02-2.76-.74-2.65,1.09.09,1.49,1.71,1.08,2.81,1.03.08,0,.16-.01.25-.01,1.32,0,2.81-.15,3.55,1.14.71,1.24-.21,2.41-.93,3.37-2.7,3.61-5.51,7.15-8.25,10.73-.72.94-1.36,1.07-2.16.13-3.77-4.44-7.56-8.86-11.29-13.33-.99-1.19-.89-2.13.97-2.15,1.15-.01,2.3.01,3.45-.03.77-.03,1.88.29,1.97-.89.1-1.41-1.1-1.14-1.96-1.14-6.66-.01-13.31,0-19.97,0-.79,0-1.88-.26-1.94.92-.08,1.41,1.14,1.18,1.98,1.09,2.19-.23,3.86.28,5.36,2.14,3.25,4.02,6.56,8.02,10.23,11.65,3.93,3.88,6.09,8.13,5.16,13.75-.25,1.52-.04,3.11-.04,4.68q-.01,3.09-3.22,3.04c-1.4-.02-2.79-.01-4.19-.02-.89,0-2.08-.19-2.02,1.1.06,1.24,1.24,1.03,2.13,1.03,3.78,0,7.56,0,11.34,0v.03c3.94,0,7.89,0,11.83,0,.81,0,1.56-.17,1.6-1.13.05-1.09-.86-1.05-1.58-1.05-1.81,0-3.62-.07-5.41.12-1.79.19-2.36-.53-2.34-2.21.04-4.19.01-8.38-.01-12.57,0-.96.32-1.76.89-2.5,3.25-4.22,6.53-8.43,9.75-12.68,2.35-3.1,4.86-5.84,9.27-5.36.74.08,1.36-.26,1.27-1.11Z"></path><path class="cls-1" d="M168.56,106.35c-2.94.54-4.36-.91-5.64-3.42-5.75-11.25-11.71-22.39-17.56-33.58-.84-1.6-1.29-2.39-2.53-.12-5.81,10.56-11.78,21.04-17.72,31.54-1.68,2.97-3.37,5.97-7.58,5.55-.59-.06-1.21.38-1.22.99-.01.76.65,1.13,1.35,1.14,4.93.03,9.86.03,14.79.02.72,0,1.37-.33,1.34-1.13-.03-.79-.71-1.05-1.42-1.04-.99.01-1.97.14-2.96.11-2.72-.07-3.77-1.63-2.61-4.06,1.06-2.21,2.37-4.31,3.57-6.46.5-.89,1.29-1.2,2.26-1.2,5.16.01,10.31.04,15.47,0,1.26-.01,2.04.58,2.55,1.58,1.31,2.56,2.57,5.14,3.82,7.73.77,1.59.12,2.33-1.53,2.38-.66.02-1.31-.03-1.97-.07-.84-.04-1.75-.16-1.74,1.1,0,1.27.95,1.09,1.77,1.09,2.88,0,5.75,0,8.63,0,0,0,0-.02,0-.02,2.96,0,5.92,0,8.88,0,.86,0,1.74.02,1.79-1.15.07-1.42-1.04-1.09-1.74-.96ZM141.17,77.26c.07.08.15.18.23.31-.08-.13-.15-.23-.23-.31-.26-.27-.48-.27-.66-.07.18-.21.4-.21.66.07ZM140.18,78.13c.34.17.82,0,1.06.46,2.25,4.42,4.51,8.84,6.95,13.63-4.67,0-8.98-.1-13.28.04-2.11.07-1.92-.52-1.1-2.01,1.91-3.49,4.21-6.78,5.53-10.58.28-.51.56-1.03.84-1.54Z"></path><path class="cls-1" d="M57.98,89.99c-3.2.05-6.41.02-9.61.02v-.02c-3.45,0-6.9.03-10.35-.02-1.21-.02-1.9.43-1.99,1.64-.1,1.39.78,1.6,1.91,1.58,1.89-.03,3.78,0,5.67-.02.88,0,1.68.06,1.78,1.19.33,3.78.17,7.48-2.89,10.23-5.82,5.25-15.81,3.47-20.02-3.17-3.6-5.69-3.79-11.84-2.88-18.06,1.09-7.41,6.27-12.19,12.76-13.1,6.71-.94,15.83,4.43,17.1,12.44.15.93.28,2.11,1.73,1.91,1.37-.19,1.26-1.24,1.26-2.26-.01-3.53.02-7.06.02-10.6,0-.89.19-1.91-.91-2.32-1.09-.41-1.87.13-2.53.99-1.09,1.41-2.21,1.54-3.71.37-1.41-1.1-3.03-1.97-4.82-2.41-7.26-1.79-14.23-1.18-20.59,2.95-10.3,6.69-12.35,19.27-6.64,28.85,5.84,9.79,18.95,13.23,28.99,7.73,3.56-1.95,5.98-2.94,9.08.35,1.36,1.44,2.52.71,2.56-1.35.06-3.12-.01-6.24.02-9.37.04-4.18.06-4.21,4.28-4.34,1.2-.04,2.2-.17,2.09-1.69-.11-1.48-1.14-1.52-2.31-1.51Z"></path><path class="cls-1" d="M114.27,99.61c-1.11-.08-1.63.63-1.73,1.66-.09.9-.03,1.82-.21,2.69-.21,1.01-.79,1.82-1.96,1.9-1.08.07-1.59-.63-2.03-1.49-.54-1.06-.68-2.17-.76-3.33-.36-5.14-1.62-9.76-7.37-11.92,1.28-.58,2.26-.96,3.2-1.45,3.49-1.83,5.56-4.7,5.47-8.66-.09-4.06-1.92-7.26-5.77-8.99-2.67-1.2-5.56-1.47-8.42-1.5-9.86-.09-19.71-.04-29.57-.03-.74,0-1.47.07-2.21.13-.92.08-1.57.45-1.52,1.52.05,1.05.63,1.42,1.61,1.4.99-.02,1.98.09,2.95-.02,2.22-.26,3.01.53,2.98,2.87-.13,8.7-.05,17.41-.05,26.11q0,5.19-5.24,5.36c-.16,0-.33,0-.49,0-1.05,0-1.77.38-1.75,1.56.02,1.21.83,1.48,1.83,1.48,1.31,0,2.63,0,3.94,0,5.58,0,11.17-.02,16.75.01,1.14,0,2-.26,2.01-1.56.02-1.4-.99-1.49-2.05-1.47-1.23.02-2.47-.07-3.69.03-1.57.12-2.22-.42-2.17-2.08.1-3.77.1-7.55,0-11.33-.05-1.81.74-2.27,2.37-2.2,3.28.14,6.57.32,9.84.21,4.26-.15,6.82.99,7.69,7.26.3,2.11.51,4.23,1.11,6.28,1.14,3.92,6.24,6.23,11.5,5.26,3.35-.62,5.35-3.81,5.05-7.94-.07-.92-.29-1.67-1.31-1.75ZM77.58,85.93c0-2.21,0-4.43,0-6.64-.01,0-.02,0-.03,0,0-2.05.04-4.1-.01-6.15-.04-1.33.44-1.96,1.85-1.94,4.43.06,8.87-.07,13.29.09,3.76.14,7.06,3.57,7.4,7.34.39,4.31-1.89,7.7-6.03,8.59-5.03,1.07-10.14.32-15.22.44-1.12.02-1.26-.83-1.25-1.72Z"></path></svg>