<svg xmlns="http://www.w3.org/2000/svg" id="Layer_1" viewBox="0 0 500 200"><defs><style>.cls-1{fill:#000;stroke-width:0px;}</style></defs><path class="cls-1" d="M94.99,159.61c-.01-.4-.04-.8-.04-1.21-.01-23.53.06-47.06-.17-70.59-.02-1.64.03-3.3-.41-4.9-1.49-5.33-6.94-8.53-12.37-7.19-4.65,1.14-9.03,3.08-13.46,4.85-5.21,2.08-10.51,3.94-15.87,5.59-2.23.69-4.66-.95-4.9-3.25-.32-3.03-.21-6.08-.22-9.12-.05-10.77-.03-21.54-.07-32.32,0-.71.15-.94.91-.94,27.2-.03,54.4-.08,81.6-.16.91,0,.97.32.97,1.06-.01,38.99-.01,77.98-.01,116.97,0,.4.04.8.06,1.2h-36Z"></path><path class="cls-1" d="M11.24,40.4c5.69,0,11.37.03,17.06-.03.95,0,1.08.28,1.08,1.13-.02,26.25-.02,52.5.01,78.75,0,4.99.19,9.99.26,14.98.08,5.83,6.66,10.05,11.81,8.61,4.6-1.28,9.04-3.05,13.54-4.65,6.83-2.43,13.62-4.98,20.52-7.2,1.08-.35,1.13-.33,1.14.8.03,5.83.04,11.67.06,17.5,0,3.1,0,6.2,0,9.31-21.58,0-43.15,0-64.73.02-.64,0-.76-.13-.76-.76.02-39.49.02-78.98.02-118.47Z"></path><path class="cls-1" d="M190.56,51.39c4.53.04,8.68-.13,12.79.38,5.13.64,9.31,3.61,10.37,8.84.87,4.29-.52,9.75-5.78,12.23-.56.27-1.51.43-1.49,1.03.02.47,1,.58,1.57.79,3.95,1.48,6.82,4.01,7.65,8.27,1.2,6.18-1.04,11.79-7.86,14.42-2.02.78-4.09,1.26-6.26,1.3-6.65.14-13.3.29-19.95.18-2.74-.04-2.47.13-2.36-2.62.06-1.45.1-1.45,1.54-1.63,1.08-.14,2.15-.29,3.24-.38.55-.04.73-.23.73-.79-.03-2.39-.02-4.78-.03-7.17-.04-9.71-.1-19.43-.11-29.14,0-.79-.19-1.07-1-1.13-1.17-.08-2.33-.35-3.5-.52-.58-.09-.83-.38-.88-.98-.08-.91.06-1.8.07-2.7,0-.59.46-.39.75-.39,3.64-.01,7.27,0,10.51,0ZM191.24,85.29h.02c0,2.48.03,4.96-.01,7.45-.01.86.32,1.1,1.15,1.11,3.02.04,6.03.01,9.04-.23,3.87-.3,7.62-2.37,7.85-7.36.21-4.6-1.49-7.93-6.24-9.14-3.39-.86-6.89-.84-10.37-.66-1.22.06-1.4.26-1.41,1.48-.03,2.45,0,4.9,0,7.35ZM191.27,63.92s-.03,0-.05,0c0,.43,0,.87,0,1.3.01,1.92.02,3.85.06,5.77,0,.48.03.96.81.94,2.92-.1,5.85-.04,8.74-.46,6.01-.88,7.46-5.71,6.01-10.65-.77-2.63-2.95-3.86-5.62-4.22-3.13-.42-6.27-.16-9.4-.2-.58,0-.55.33-.55.72,0,2.27,0,4.53,0,6.8Z"></path><path class="cls-1" d="M289.17,63.86c0,5.24,0,10.49,0,15.73,0,.26-.14.63.12.77.32.18.57-.17.78-.36,3.53-3.19,6.86-6.58,10.09-10.07.41-.44.31-.7-.24-.83-.6-.14-1.22-.25-1.83-.35-.71-.12-1-.58-1.04-1.23-.04-.74,0-1.49-.04-2.23-.02-.42.16-.53.55-.52,4.91.03,9.82-.27,14.73,0,.64.03.95.26,1.02.92.08.69,0,1.36-.11,2.04-.09.63-.57.84-1.11.95-1.16.23-2.33.35-3.51.4-.43.02-.76.14-1.07.45-2.8,2.82-5.68,5.56-8.4,8.47-.37.39-.6.71-.24,1.28,2.56,4.11,5.15,8.19,7.98,12.12,1.48,2.05,3.37,3.07,5.92,3.07,2.13,0,2.13.09,2.36,2.18q.23,2.16-1.87,2.38c-3.74.39-7.14-.26-9.76-3.21-1.46-1.66-2.61-3.55-3.82-5.38-1.54-2.32-2.99-4.71-4.65-6.97-.48-.66-.84-.73-1.46-.18-1.47,1.3-2.8,2.74-4.19,4.11-.24.24-.31.51-.3.84.05,1.71.11,3.41.1,5.12,0,.58.23.74.73.82,1.16.18,2.32.43,3.49.6.41.06.61.18.6.63-.03.93-.03,1.86,0,2.79.01.47-.2.57-.62.57-5,0-10.01-.01-15.01,0-.45,0-.59-.14-.58-.59.03-.9.03-1.8,0-2.7-.01-.45.1-.64.6-.71,1.35-.17,2.7-.44,4.05-.63.5-.07.65-.26.65-.77,0-13.31.28-26.63-.03-39.94-.02-.79-.29-1.13-1.03-1.21-1.24-.12-2.47-.3-3.71-.38-.59-.04-.73-.27-.69-.8.05-.77.04-1.55.06-2.32.02-.62.33-.97.97-1,3.35-.14,6.71-.27,10.06-.42.72-.03.49.49.49.83-.01,5.12-.04,10.24-.06,15.36,0,.12,0,.25,0,.37,0,0,.01,0,.02,0Z"></path><path class="cls-1" d="M76.71,104.24c0,2.23.02,4.47,0,6.7-.03,2.26-.94,3.83-3.22,4.67-7.99,2.95-15.96,5.97-24,8.8-1.43.5-1.82.24-1.87-1.25-.19-5.61-.14-11.23,0-16.84.02-.84.33-1.31,1.17-1.62,8.71-3.26,17.45-6.42,26.23-9.47,1.11-.39,1.37-.23,1.54.94.38,2.68.12,5.39.16,8.08Z"></path><path class="cls-1" d="M238.65,81.92c-3.48,0-6.96.01-10.44-.01-.59,0-.78.13-.79.76-.04,2.64.64,5.09,1.91,7.38,1.71,3.09,4.57,4.36,7.89,4.71,2.82.3,5.46-.44,8.02-1.62,2.34-1.08,1.97-1.32,3.19,1.2.99,2.03.95,2.08-1.14,3.09-5.45,2.64-11.16,3.22-16.78,1-6.02-2.38-8.99-7.32-9.51-13.65-.33-4-.2-8.02,1.6-11.76,2.89-6.01,7.59-9.16,14.38-9.22,3.81-.03,7.11.97,9.74,3.78,2.5,2.67,3.49,5.94,3.63,9.52.04,1.18,0,2.36.03,3.54.02.77-.29,1.08-1.1,1.12-3.54.16-7.08.14-10.62.15ZM235.78,77.46s0-.1,0-.15c1.96,0,3.92.01,5.87,0,2.56-.02,2.56-.03,2.2-2.59-.44-3.15-2.38-5.45-5.19-6.14-1.48-.36-2.95-.3-4.43.04-3.57.84-5.75,3.8-6.43,7.63-.21,1.2-.16,1.2,1.08,1.2,2.3,0,4.6,0,6.9,0Z"></path><path class="cls-1" d="M386.53,99.67c-6.2.21-11.01-2.25-14.3-7.55-1.37-2.21-1.98-4.67-2.17-7.23-.28-3.58-.32-7.18,1.03-10.56,2.22-5.57,6.08-9.44,12.23-10.33,3.08-.45,6.23-.39,9.12,1.08,4.2,2.13,6.07,5.84,6.79,10.29.27,1.69.32,3.4.21,5.1-.09,1.31-.28,1.45-1.56,1.46-6.8.04-13.61.11-20.41.12-.79,0-.97.25-1,1-.18,5.66,3.1,10.31,8.23,11.46,3.33.75,6.54.22,9.57-1.35.06-.03.11-.05.17-.08q1.9-1.05,2.9.86c1.21,2.3,1.12,2.61-1.23,3.67-3.03,1.38-6.19,2.2-9.57,2.06ZM384.83,77.46c2.51,0,5.03-.02,7.54.01.63,0,.77-.19.77-.79-.02-1.78-.54-3.41-1.33-4.97-.59-1.17-1.42-2.15-2.64-2.64-2.23-.88-4.57-1.07-6.8-.17-3.55,1.42-5.17,4.32-5.69,7.97-.08.55.18.6.62.59,2.51-.01,5.03,0,7.54,0Z"></path><path class="cls-1" d="M354.91,81.97c-3.32,0-6.65-.03-9.97.01-2.08.03-2.12.09-1.85,2.12.27,2.09.67,4.15,1.86,5.98,2.63,4.03,6.47,5.16,11,4.62,2.16-.26,4.14-1.06,6-2.15.64-.37,1.05-.33,1.38.38.37.78.78,1.55,1.2,2.31.41.76.2,1.28-.53,1.69-2.13,1.19-4.35,2.13-6.79,2.41-3,.34-6.02.61-8.98-.18-6.65-1.78-10.71-6.55-11.47-13.43-.5-4.5-.38-8.93,1.69-13.09,2.34-4.71,5.99-7.82,11.26-8.64,2.74-.43,5.57-.38,8.19.61,4,1.51,6.42,4.58,7.49,8.65.63,2.4.77,4.9.65,7.39-.06,1.25-.11,1.28-1.35,1.28-3.26,0-6.52,0-9.79,0v.05ZM351.37,77.46c2.52,0,5.04-.03,7.55.02.68.01.87-.21.77-.84-.1-.64-.11-1.3-.21-1.94-.64-4.06-3.43-6.38-7.53-6.31-2.34.04-4.44.66-6,2.49-1.44,1.68-2.32,3.64-2.7,5.83-.11.64.05.77.66.77,2.49-.03,4.97-.01,7.46-.01Z"></path><path class="cls-1" d="M329.81,70.86c0,7.45.01,14.9-.02,22.35,0,.77.23.99.98,1.05,1.2.09,2.39.35,3.59.5.46.06.65.24.65.71,0,.96.03,1.92.09,2.88.03.49-.19.56-.6.55-4.88-.03-9.76-.02-14.64-.07-1.67-.02-1.75-.17-1.76-1.86,0-.19,0-.37,0-.56.05-1.39.07-1.45,1.41-1.71,1.03-.2,2.08-.4,3.13-.46.69-.04.88-.26.88-.93,0-6.64.07-13.28.07-19.92,0-6.73-.06-13.47-.05-20.2,0-.75-.18-1.03-.96-1.06-1.18-.04-2.35-.26-3.52-.33-.64-.04-.87-.36-.93-.92,0-.06-.02-.12-.02-.19-.05-3.2.07-2.93,2.67-3.03,2.67-.1,5.34-.09,8.01-.18.82-.03,1.09.15,1.08,1.03-.04,7.45-.02,14.9-.02,22.35h-.04Z"></path><path class="cls-1" d="M265.73,69.6c.55-.7.98-1.25,1.4-1.8,2.54-3.38,5.93-4.5,10.03-3.79.85.15,1.07.55.92,1.36-.23,1.19-.46,2.37-.83,3.52-.22.69-.6,1.03-1.39.81-2.6-.74-4.8.09-6.85,1.68-2.32,1.8-3.58,4-3.58,7.07,0,4.84-.01,9.68.07,14.52.01.73.27,1.07.99,1.17,1.48.2,2.94.46,4.42.65.58.07.78.34.82.89.07.87-.07,1.74-.05,2.6.01.45-.22.48-.58.49-5.19.08-10.38.19-15.57.05-1.58-.04-1.58-.11-1.56-1.67q.02-2.21,2.19-2.59c.89-.15,1.77-.32,2.66-.43.43-.05.56-.21.56-.65-.03-7.82.25-15.64-.02-23.46-.03-.74-.33-1.08-1.05-1.11-1.09-.05-2.17-.14-3.26-.17-.7-.01-1.06-.32-1.05-1,0-.84.07-1.67.08-2.51,0-.57.45-.52.78-.58,1.41-.26,2.85-.23,4.27-.28,1.89-.07,3.79-.06,5.68-.13.6-.02.73.17.72.73-.02,1.47-.03,2.95.21,4.65Z"></path><path class="cls-1" d="M412.26,121.31c-.46.35-.58.77-.76,1.15-3.15,6.46-5.82,13.14-8.77,19.69-.53,1.19-1.08,2.37-1.64,3.54-.15.32-.25.79-.7.77-.38-.02-.5-.43-.64-.73-1.16-2.5-2.32-5-3.46-7.51-2.38-5.28-4.59-10.64-7.13-15.84-.17-.36-.38-.7-.64-1.18-.37.56-.31,1.08-.33,1.57-.28,7.54-.14,15.08-.24,22.62,0,.31.2.79-.18.92-.55.17-1.16.26-1.74.04-.31-.12-.22-.42-.23-.65-.04-1.43-.1-2.85-.09-4.28.03-7.6.08-15.21.09-22.81,0-.69.16-.95.87-.87.95.1,2.1-.36,2.8.19.65.51.83,1.61,1.21,2.46,2.96,6.68,5.75,13.44,8.95,20.02.21.43.31,1.14.81,1.13.41,0,.53-.69.73-1.1,3.47-7.13,6.49-14.47,9.67-21.73.32-.72.66-1.13,1.48-.99.12.02.25,0,.37,0,.7,0,1.64-.44,2.03.04.36.43.13,1.36.13,2.07,0,8.57,0,17.13,0,25.7,0,.32.19.85-.17.92-.59.13-1.24.1-1.84-.03-.29-.06-.13-.56-.14-.85-.02-7.26-.03-14.52-.21-21.78-.02-.79-.03-1.58-.25-2.46Z"></path><path class="cls-1" d="M296.43,138.15c.08,3.47.22,6.96-.2,10.41-.22,1.85-1.04,3.49-2.24,4.93-1.42,1.7-3.23,2.62-5.47,2.81-3.16.27-6.21.16-9-1.58-.39-.25-.79-.49-1.16-.78-1.12-.88-1.06-1.44.15-2.19.42-.26.58.09.78.26,1.39,1.12,2.83,2.12,4.62,2.49,1.63.34,3.27.39,4.9.04,2.56-.54,4.25-2.06,5.06-4.55.6-1.86.65-3.78.52-5.71-.06-.9-.32-1.01-1.01-.43-1.57,1.32-3.25,2.3-5.36,2.57-5.15.65-10.19-2.98-11.05-8.08-.82-4.88,2.66-9.72,7.76-10.73,3.02-.6,5.8-.13,8.17,2,.35.32.75.87,1.23.69.45-.17.31-.82.38-1.27.13-.85.85-1.27,1.67-.99.4.14.25.46.25.7.01,3.13,0,6.27,0,9.4ZM286.82,129.14c-4.24-.31-8,3.64-7.94,7.72.07,4.34,3.53,7.93,7.81,7.93,4.27,0,7.82-3.53,7.86-7.79.04-4.43-3.91-8.15-7.73-7.86Z"></path><path class="cls-1" d="M193.67,147.29c-8.76.18-15.41-6.92-14.79-16.3.34-5.12,2.37-9.33,6.83-12.02,4.39-2.65,9.08-2.9,13.86-1.05,1.32.51,2.41,1.4,3.36,2.44.41.45.59.9.01,1.33-.48.36-.85.99-1.61.25-3.51-3.44-7.67-4.04-12.14-2.38-4.56,1.69-7.11,5.18-7.88,9.9-.7,4.32.09,8.34,3.03,11.76,3.72,4.33,11.4,6.09,16.89,1.24.26-.23.51-.46.76-.69.8-.73,1.62-.55,2.11.44.23.47-.11.71-.34.96-2.02,2.16-4.45,3.53-7.41,3.92-.96.13-1.91.25-2.69.19Z"></path><path class="cls-1" d="M263.01,146.91c-5.94.44-10-4.76-9.53-10.52.24-2.95,1.39-5.42,3.77-7.3,2.1-1.66,4.54-1.7,7.01-1.56,3.58.2,6.73,3.4,7.16,7.19.1.86.54,1.93.05,2.52-.45.54-1.58.21-2.4.23-4.1.1-8.2.16-12.3.23-1.07.02-1.25.24-1.17,1.34.23,3,3.34,6.06,6.34,6.24,2.55.15,4.87-.4,6.77-2.25.33-.32.69-.66,1.22-.53.72.18.96.89.48,1.48-1.67,2.08-3.96,2.78-6.5,2.91-.37.02-.75,0-.9,0ZM262.55,136.04c1.79-.07,3.65.02,5.5-.2,1.49-.18,1.8-.66,1.26-2.08-1.12-2.95-4.01-4.86-7.11-4.71-2.81.14-5.78,2.61-6.52,5.43-.25.96-.07,1.2.93,1.33,1.95.25,3.9.18,5.93.23Z"></path><path class="cls-1" d="M311.57,146.91c-5.74.46-9.97-4.94-9.22-11.02.3-2.41,1.24-4.5,3.04-6.22,2.22-2.13,4.93-2.31,7.74-2.13,3.69.23,6.93,3.68,7.16,7.6.04.73.47,1.71,0,2.13-.44.39-1.41.19-2.15.21-4.23.09-8.45.18-12.68.22-.76,0-1.02.23-1.03,1.01-.03,3.09,3.24,6.44,6.46,6.59,2.53.12,4.81-.45,6.67-2.27.18-.17.38-.33.6-.44.52-.25.88.02,1.21.4.33.37.16.66-.09.98-1.58,2.01-3.77,2.73-6.2,2.94-.49.04-.99,0-1.49,0ZM311.27,136.04c1.85-.08,3.78.03,5.7-.22,1.37-.17,1.66-.58,1.23-1.89-.96-2.95-3.94-5-7.07-4.88-2.85.11-5.97,2.65-6.63,5.42-.23.96-.04,1.21.95,1.34,1.91.26,3.84.17,5.83.23Z"></path><path class="cls-1" d="M355.88,137.26c.33,5.17-3.65,9.88-10.19,9.75-4.26-.09-9.33-3.24-9.37-9.82-.04-5.48,4-9.79,9.96-9.78,5.55,0,10.03,4.45,9.6,9.85ZM353.94,137.3c0-5-3.02-8.18-7.76-8.18-4.59,0-7.88,3.3-7.9,7.96-.03,4.81,3.24,8.25,7.82,8.24,4.73,0,7.85-3.2,7.85-8.02Z"></path><path class="cls-1" d="M227.79,137.2c.45,5.49-3.96,9.93-10.1,9.81-4.44-.09-9.36-3.33-9.43-9.76-.07-5.75,4.23-9.78,9.81-9.85,5.58-.06,10.25,4.44,9.72,9.8ZM225.89,137.09c-.13-5-3.22-8.09-7.97-7.97-4.69.12-7.88,3.54-7.66,8.44.25,5.48,4.21,7.91,8.18,7.77,4.53-.16,7.57-3.47,7.45-8.24Z"></path><path class="cls-1" d="M438.64,137.16c0,2.79,0,5.59,0,8.38,0,.29.12.69-.3.77-.48.1-.98.29-1.46.13-.24-.08-.11-.45-.13-.69-.05-.63.18-1.52-.42-1.78-.56-.25-1.05.51-1.48.94-2.36,2.31-5.2,2.48-8.16,1.74-2.05-.51-3.76-2.78-3.92-4.88-.34-4.43-.16-8.87-.34-13.31-.02-.47.13-.56.58-.53,1.83.12,1.47-.09,1.52,1.52.09,3.44.13,6.89.24,10.33.04,1.14.06,2.31.69,3.33,1.14,1.86,3.16,2.63,5.52,2.12,3.05-.66,5.01-2.96,5.23-6.06.25-3.44.28-6.88.32-10.33.02-1.31.91-.76,1.48-.89.83-.19.53.48.53.82.02,2.79.01,5.59.01,8.38.03,0,.05,0,.08,0Z"></path><path class="cls-1" d="M451,146.91c-2.48.22-4.6-.51-6.36-2.17-.94-.89-.78-1.5.4-2.02.59-.26.86.14,1.18.47,1.79,1.85,3.96,2.48,6.46,1.93,1.48-.32,2.45-1.29,3.05-2.63.46-1.03.17-1.93-.56-2.73-.81-.88-1.89-1.27-3-1.59-1.25-.36-2.51-.68-3.76-1.05-.41-.12-.81-.31-1.21-.49-3.74-1.63-3.05-6.13-.88-7.85,2.62-2.08,7.55-1.88,9.91.49.42.42,1.04.85.49,1.57-.46.59-1.13.56-1.86-.08-1.56-1.38-3.32-2.03-5.4-1.54-.87.21-1.62.63-2.17,1.34-1.25,1.59-.94,3.22.81,4.21,1.56.89,3.33,1.15,5.04,1.57.33.08.67.15.99.25,2.85.91,4.04,2.83,3.64,5.85-.31,2.37-2.59,4.35-5.13,4.47-.56.02-1.12,0-1.62,0Z"></path><path class="cls-1" d="M363.63,138.27c-.01-2.45,0-4.9-.13-7.35-.05-.95-.44-1.34-1.34-1.37-.62-.03-1.24-.1-1.85-.17-.4-.04-.73-.16-.74-.66,0-.49.3-.65.7-.69.77-.08,1.55-.07,2.31-.23.57-.11.84-.39.91-.98.21-1.64.09-3.28.15-4.93.06-1.77.14-3.52,1.39-4.99,1.53-1.81,3.62-2,5.87-1.66.51.07.75.4.63.94-.11.47-.33.8-.89.71-.4-.06-.8-.12-1.2-.13-1.64-.02-3.08,1.02-3.42,2.61-.51,2.4-.71,4.84-.46,7.3.07.71.38,1.03,1.08,1.14.86.14,1.73.14,2.6.21.45.04.89.12.85.74-.04.57-.47.58-.87.62-.8.08-1.61.16-2.41.19-.94.04-1.16.57-1.2,1.4-.22,4.62-.12,9.24-.15,13.86,0,.25-.03.5,0,.74.1.71-.13.98-.9.95-.68-.03-.97-.12-.95-.9.06-2.45.02-4.9.02-7.35Z"></path><path class="cls-1" d="M482.57,127.4c2.08,0,3.99.53,5.63,1.85.56.45.77,1.32.39,1.69-.55.54-1.06.3-1.56-.12-2.41-2.05-5.1-2.31-7.9-1-2.88,1.34-4.16,3.83-4.38,6.86-.32,4.27,2.19,7.69,6.16,8.51,2.12.44,4.07-.01,5.78-1.37.1-.08.19-.16.29-.24.5-.42,1.01-.83,1.59-.15.39.46.2,1.32-.4,1.77-4.52,3.45-13.53,2.37-15.21-5.75-.36-1.76-.3-3.52.19-5.25,1.22-4.32,4.64-6.78,9.41-6.79Z"></path><path class="cls-1" d="M236.48,131.01c0,4.84-.03,9.68.02,14.52,0,.85-.4.87-1,.92-.68.05-.92-.21-.93-.9-.11-9.31-.21-18.62,0-27.93.01-.43.09-.86.16-1.29.08-.49.11-1.02.87-.91.64.09,1.03.23,1.02,1.07-.05,4.84-.02,9.68-.02,14.52-.04,0-.08,0-.12,0Z"></path><path class="cls-1" d="M246.8,131.02c0,4.84-.03,9.68.03,14.53,0,.86-.42.85-.99.91-.62.06-.92-.16-.91-.82,0-.87-.06-1.74-.06-2.61-.01-7.91-.02-15.83-.01-23.74,0-.99.09-1.99.21-2.97.06-.45.1-1.04.89-.89.64.12,1.03.23,1.02,1.07-.05,4.84-.02,9.68-.02,14.52h-.14Z"></path><path class="cls-1" d="M466.06,137.26c0,2.79-.04,5.58.02,8.37.02.87-.51.75-1,.8-.56.05-.93-.08-.92-.8.03-5.64.04-11.29,0-16.93,0-.79.46-.65.9-.64.44.02,1.01-.23,1,.64-.04,2.85-.01,5.71-.01,8.56Z"></path><path class="cls-1" d="M465.03,118.19c.78-.02,1.65.78,1.7,1.55.04.75-.78,1.6-1.59,1.64-.8.04-1.62-.76-1.62-1.58,0-.76.79-1.59,1.52-1.61Z"></path></svg>