<svg xmlns="http://www.w3.org/2000/svg" id="Layer_1" viewBox="0 0 500 200"><defs><style>.cls-1{fill:#000;stroke-width:0px;}</style></defs><path class="cls-1" d="M125.71,137.74c-1.25.4-2.42,1.03-3.64,1.13-7.42.63-14.84,1.24-22.28,1.66-8.88.5-17.77.67-26.65,1.24-10.89.7-21.76,1.71-32.65,2.49-8.51.61-17.02,1.16-25.54,1.55-2.33.11-4.69-.46-7.04-.72.08-.34.17-.68.25-1.02.71.32,1.43.65,2.14.97,1.96-3.65,3.56-3.78,6.89-1.64,1.57,1,3.92.78,5.91,1.11.05-.25.1-.49.15-.74-1.15-.27-2.31-.54-3.49-.82-.44-7.84-1.42-7.08,3.05-8.17-.77,1-1.41,1.84-2.2,2.87.95.49,1.84.94,2.73,1.4.06-.46.12-.91.22-1.63,2.33.51,3.66-.7,4.07-3.57h-12.47c-.01-.34-.03-.67-.04-1.01,3.97-.12,7.94-.21,11.91-.38,1.22-.05,2.44-.33,3.63-.5,1.56-.11,3.11-.17,4.66-.33,1.36-.14,2.71-.4,4.07-.61.07.23.13.47.2.7.28-.49.52-1.38.84-1.41,2.13-.16,4.29-.02,6.42-.22,1.24-.12,2.43-.72,3.66-1.07.57-.16,1.17-.21,1.75-.31-.02.39-.05.78-.05.92,1.36-.3,2.88-1.11,4.18-.85,5.69,1.16,10.89-1.78,16.42-1.64.79.02,1.58.23,2.38.35.32.05.69.21.97.12,2.63-.87,5.26-1.77,7.54-2.55,1.1,1.01,1.8,1.65,2.87,2.63v-2.34c2.19-.32,4.33-.64,6.86-1.01-.92-4.34-1.8-8.62-2.74-12.88-2.93-13.25-5.86-26.51-8.86-39.74-.37-1.61-.04-2.25,1.62-2.24,3.32.03,6.63.05,9.95,0,1.53-.03,1.97.66,2.21,2.11,1.95,11.95,4,23.88,6.02,35.81.07.43.22.85.34,1.27.25.04.51.08.76.11.48-2.39,1.01-4.77,1.44-7.17,1.73-9.75,3.46-19.49,5.1-29.26.37-2.19,1.26-3.1,3.62-2.93,3.21.24,6.45.19,9.66.01,2.14-.12,2.84.72,3.2,2.71,2.02,11.2,4.17,22.38,6.28,33.57.2,1.03.5,2.05.75,3.07.25,0,.5,0,.76.01.52-2.73,1.09-5.46,1.56-8.2,1.69-9.66,3.4-19.32,4.96-29,.27-1.68.92-2.17,2.48-2.13,2.95.06,5.9.06,8.84,0,1.91-.04,2.25.52,1.81,2.48-3.44,15.17-6.74,30.38-10.06,45.57-.19.88-.25,1.79-.43,3.15,4.49-.34,8.75-.67,12.67-.97-1.17-4.7-2.8-9.12-3.27-13.66-.79-7.76-1.07-15.65.98-23.29,3.03-11.31,9.77-14.08,19.02-14.82,4.82-.38,9.59.24,13.81,2.92,5.39,3.43,7.1,8.95,7.94,14.8.48,3.35.37,6.78.67,10.16.22,2.37-.52,3.22-3.04,3.17-7.55-.16-15.11.06-22.66-.12-2.63-.06-3.5.84-3.13,3.29.56,3.68.83,7.44,1.76,11.03.67,2.59,2.84,3.85,5.7,3.89,2.94.05,4.92-1.2,6.21-3.72.42-.81.78-1.67,1.03-2.55,1.21-4.26,1.2-4.26,5.7-4.26,2.38,0,4.76,0,7.69,0-.59,3.5-1.13,6.69-1.71,10.1h6.8c-.69-3.99-1.63-7.97-2.03-12-.72-7.33-.63-14.67,1.14-21.9,3-12.2,12.7-15.9,23.99-14.61,10.56,1.2,15.45,6.58,16.7,17.3.43,3.64.43,7.33.69,10.99.14,1.91-.62,2.56-2.55,2.54-7.83-.09-15.66.02-23.49-.07-2.11-.03-3.14.54-2.86,2.79.43,3.45.57,6.95,1.28,10.34.58,2.74,2.42,4.2,5.58,4.14,5.71-.12,7.22-1.06,8.32-7.03.4-2.18,1.29-2.72,3.27-2.61,2.48.13,4.97.09,7.46.01,1.81-.06,2.55.46,2.06,2.42-.49,2-.68,4.07-1.05,6.38,2.92-.26,5.5-.49,8.3-.74,0-4.86,0-9.45,0-14.03,0-6.26-.13-12.52.06-18.77.08-2.75-.89-3.68-3.47-3.3-.36.05-.74-.04-1.1.01-2.24.35-3.05-.7-2.8-2.81.03-.27,0-.55,0-.83-.02-5.11-.02-5.18,4.94-5.34,1.8-.06,2.43-.71,2.39-2.47-.08-3.68.06-7.36-.05-11.04-.06-1.87.51-2.68,2.49-2.6,3.03.12,6.08.1,9.12,0,1.77-.05,2.47.56,2.42,2.39-.11,3.59.09,7.18-.07,10.76-.11,2.35.81,3.05,3.04,2.96,3.31-.14,6.64.07,9.95-.07,2.11-.09,2.84.73,3.16,2.78,1.8,11.34,3.74,22.66,5.65,33.99.15.86.43,1.7,1.31,2.59.52-2.45,1.1-4.89,1.54-7.36,1.73-9.74,3.45-19.49,5.11-29.25.33-1.92,1.01-2.89,3.21-2.77,3.4.19,6.82.12,10.22.02,1.82-.05,2.53.59,2.87,2.43,2.08,11.38,4.31,22.73,6.5,34.09.17.88.44,1.74,1.29,2.7.26-1.05.58-2.09.77-3.15,2-11.29,4.03-22.57,5.91-33.87.3-1.81,1.04-2.24,2.7-2.2,3.48.09,6.96.03,10.87.03-3.23,14.79-6.37,29.21-9.58,43.94,2.58.15,4.75.27,6.98.39.26-2.89.39-5.61.77-8.31.71-5,3.63-8.48,8.25-10.18,4.64-1.7,9.45-2.92,14.21-4.29,4.12-1.19,6.14-3.99,5.59-7.9-.55-3.97-2.82-6.03-6.82-6.21-3.79-.16-6.55,1.9-7.19,5.76-.38,2.32-1.27,3.33-3.74,3.1-2.37-.22-4.79-.11-7.18-.04-1.65.05-2.04-.75-1.93-2.22.65-8.73,5.69-14.28,14.63-15.06,4.87-.42,9.92-.22,14.73.6,6.7,1.14,10.4,5.81,10.52,12.59.19,10.67.11,21.35.14,32.02.01,3.5.85,4.42,4.12,4.58,1.27.06,2.55.23,3.82.19.35-.01,1.04-.73.98-.86-.33-.74-.72-1.85-1.31-2-1.57-.41-3.26-.4-4.91-.8,1.81-.08,3.62-.17,5.63-.26.09-.91.23-1.7.23-2.49.02-10.22-.05-20.43.06-30.65.02-2.31-.7-3.22-2.98-2.92-.63.08-1.29.01-1.93,0-.37,0-.82.12-1.09-.05-2.87-1.72-.8-4.46-1.32-6.69-.31-1.31.23-2.18,1.9-2.3,5.38-.38,5.38-.44,5.38-5.76,0-2.76-.13-5.53.09-8.28.06-.7,1.17-1.85,1.85-1.89,3.3-.2,6.63-.05,9.94-.11,1.56-.03,2.11.62,2.08,2.15-.06,3.68.08,7.37-.05,11.04-.08,2.12.59,2.92,2.8,2.92,5.64,0,5.52.1,5.65,5.74.06,2.5-.63,3.34-3.24,3.29-5.82-.13-5.15-.82-5.17,5.05-.03,8.56-.02,17.12,0,25.68.01,5.16,1.66,6.69,6.9,6.52,1.09-.04,2.18,0,3.29,0-.6-4.06-1.28-7.9-1.71-11.78-.76-6.89-.53-13.79,1.03-20.55,2.32-10.03,8.89-15.28,19.3-15.56,6.31-.17,12.42.59,16.89,5.75,3.6,4.16,4.53,9.36,5.09,14.6.28,2.65.14,5.33.31,8,.13,2.04-.66,2.73-2.71,2.7-7.83-.09-15.66.04-23.49-.08-2.22-.03-3.05.72-2.79,2.86.4,3.36.46,6.8,1.24,10.06.84,3.55,3.19,5.18,6.22,5.23,3.53.05,5.72-1.48,7.02-5.03.63-1.7.63-4.31,1.79-4.96,1.64-.92,4.08-.4,6.18-.5.18,0,.37,0,.55,0,6.62-.07,5.46-.18,4.38,5.51-.55,2.9-2.07,5.61-3.31,8.82,2.08.69,4.36,1.45,7.05,2.35.08-1.17.21-2.21.21-3.24.01-15.65,0-31.29,0-46.94q0-3.55,3.67-3.55c2.39,0,4.79.09,7.18-.03,1.88-.09,2.75.5,2.57,2.5-.13,1.42-.03,2.86-.03,5.09,1.87-2.22,3.11-3.87,4.53-5.34,2.4-2.48,5.4-3.71,8.87-3.85,1.83-.07,2.73.53,2.65,2.53-.11,2.85-.11,5.71,0,8.56.07,1.88-.54,2.3-2.42,2.1-6.6-.73-11.16,2.04-12.7,7.51-.2.7-.34,1.44-.35,2.15-.02,10.31-.02,20.62-.01,30.92,0,.53.14,1.06.14,1.02,4.77,2.87,9.45,4.69,14.86,3.99-.83.47-1.65.94-2.41,1.37h11.13v.63c-.57.17-1.14.34-1.7.51,0,.12.01.25.02.37l6.69.67c.09.27.18.54.27.82-1.43,1.62-2.92,3.19-4.24,4.89-.41.53-.36,1.42-.54,2.14-.4,1.58-1,3.07-2.97,2.99-1.8-.07-3.04.51-3.6,2.29-.08.26-.23.68-.39.7-3.02.48-4.01,3.87-6.62,4.71-2.86.92-5.85,1.68-8.83,1.88-2.71.18-5.48-.44-8.21-.81-.73-.1-1.42-.54-2.41-.94,2.78-.58,5.12-1.06,7.41-1.54-.25-1.85-.43-3.2-.59-4.46-2.28-.17-4.17,2.14-6.43-.27,3.28-.46,6.13-2.63,9.28.82-.12-1.22-.16-1.63-.22-2.26.79.32,1.48.6,2.37.96-.28-4.68-4.38-.97-6.03-2.89.63-.49,1.15-.88,1.63-1.25-.71-1.48-4.35-.29-5.2,1.48-.11.23-.25.43-.14.25h-5.1c-.03.28-.05.57-.08.85,1,.16,2,.31,3.39.53-.75.6-1.34,1.43-1.76,1.35-2.43-.47-4.79-1.3-7.22-1.71-1.29-.21-2.69.31-4.03.27-.53-.01-1.05-.64-1.58-.99.14-.33.27-.65.41-.98-7.86-.55-15.73-.97-23.57-1.7-4.42-.41-8.77-1.4-13.18-2-2.25-.3-4.54-.27-6.81-.43-9.1-.68-18.19-1.49-27.29-2.02-4.83-.28-9.7,0-14.54-.16-7.21-.25-14.41-.75-21.63-.99-5.61-.19-11.23-.24-16.85-.18-19.49.2-38.97.43-58.46.75-7.8.13-15.59.53-23.39.8-.35.01-.8.04-1.05-.14-2.08-1.55-3.87-1-4.91.08-3.94,0-7.23-.1-10.52.02-12.19.43-24.37.86-36.55,1.45-8.26.4-16.5,1.03-24.75,1.61-9.16.65-18.31,1.39-27.47,2.01-1.27.09-2.58-.3-3.7-.44ZM117.95,85.46c-.29,0-.58,0-.87,0-2.18,12.17-4.37,24.34-6.6,36.79,3.15.55,6.03,1.31,8.95-.34.63-.36,1.55-.34,2.31-.26.83.09,1.62.45,2.43.69.11-1.04.45-2.11.28-3.1-1.37-7.65-2.83-15.28-4.3-22.92-.7-3.63-1.46-7.24-2.2-10.87ZM271.18,113.62c-2.62-11.83-5-22.72-7.54-33.57-.15-.65-1.57-1.34-2.42-1.37-.49-.02-1.46,1.24-1.47,1.94-.12,5.78-.08,11.57-.08,17.36,0,4.23-.05,8.45.04,12.68.03,1.39-.05,3.27,2.02,3.31,2.96.05,5.92-.2,9.44-.34ZM347.1,115.71c2.37,0,4.33-.23,6.21.05,2.82.42,4.49-1.05,5.5-3.19,2.32-4.94.91-10.12,1.25-15.44-4.01,1.38-7.42,2.4-10.68,3.76-1.27.53-2.47,1.65-3.29,2.8-2.67,3.75-1.52,9.41,2.02,10.65-.26.35-.52.7-1.01,1.36ZM425.65,91.09l.02.25c2.52-.26,5.04-.51,7.56-.77-.36-3.05-.49-6.15-1.15-9.14-.65-2.98-3.08-4.29-5.96-4.41-2.73-.11-5.21.9-6.4,3.49-.94,2.04-1.62,4.31-1.87,6.53-.46,3.98-.26,4.04,3.66,4.05,1.38,0,2.76,0,4.14,0ZM218.31,91.09h0c2.02-.01,4.06.11,6.06-.08.64-.06,1.77-1.04,1.72-1.48-.36-2.98-.64-6.04-1.62-8.84-1.05-3.01-4.39-4.25-7.54-3.45-3.83.97-6.07,4.29-6.41,9.5q-.28,4.34,3.93,4.35c1.29,0,2.57,0,3.86,0ZM181.34,91.07c-.33-3.02-.43-5.59-.93-8.07-.78-3.88-2.99-5.81-6.45-6.04-3.22-.21-6.47,1.96-7.4,5.42-.61,2.25-.69,4.68-.77,7.03-.02.54.98,1.57,1.53,1.59,4.47.13,8.95.07,14.01.07ZM292.1,113.46c3.07,0,5.71-.03,8.34,0,2.07.03,3-.47,2.43-2.91-1.04-4.44-1.67-8.98-2.52-13.46-.74-3.85-1.56-7.67-2.34-11.51-.31,0-.61,0-.92.01-1.64,9.16-3.27,18.32-4.98,27.86ZM454.08,135.72c2.05,0,4.03.55,5.44-.11,3.13-1.45,4.89-.76,5.99,2.39.13.38.83.56,1.27.83.26-.43.65-.84.73-1.31.14-.75.09-1.54.12-2.31.91.31,1.9.49,2.72.95,1.09.61,2.05,1.44,2.71,1.91,4.39-1.55,8.58-3.03,12.77-4.51-1.75-.14-3.46.18-5.19.39-.93.11-1.9.13-2.83.03-1.42-.15-2.83-.59-4.25-.65-2.75-.11-5.51-.03-8.27-.03,2.6-1.02,5.2-1.54,7.8-2.04.25-.05.63-.02.8.14,2.09,1.96,3.71.83,5.33-.7-1.25-1.5-11.94-2.28-14.38-1.08.31.64.63,1.28.93,1.89-3.03,1.18-2.45-1.22-2.78-2.53-1.78-.21-3.41-.59-5.03-.52-.69.03-1.34.98-2.01,1.5.18.09.35.19.53.28l4.31-.67c.07.37.14.75.21,1.12-.94.17-1.88.34-2.83.5-.9.16-1.91.1-2.67.51-.77.41-1.29,1.27-2.01,2.02.66.18,1.09.3,1.56.43-.28.43-.54.83-.98,1.54ZM134.63,132.01c.07.17.14.34.21.51,7.6-.63,15.2-1.26,22.98-1.9-1.13-1.57-6.54-2.03-8.16-1.43-1.66.61-3.54.78-5.33.82-1.2.02-2.55-1.03-3.58-.74-2.13.61-4.09,1.8-6.12,2.75ZM478.43,140.91c-1.38-.62-2.54-1.15-3.64-1.64-.64.46-1.37,1.34-1.72,1.21-3.26-1.26-3.63,1.3-4.92,3.58,2.83-.51,5.19-.93,7.55-1.36.04.16.08.32.11.48.8-.7,1.61-1.39,2.62-2.27ZM108.67,129.38c-.06-.34-.12-.67-.18-1.01-.67.04-1.33.09-2,.13-1.92.1-3.91.56-5.73.19-1.87-.38-1.8-.74-2.39,1.09,1.44.43,2.89.85,4.33,1.28-.02-.21-.03-.42-.05-.63,2.01-.35,4.01-.7,6.02-1.06ZM96.54,134.81c-.75-.87-1.4-1.61-1.84-2.13-.84.74-1.57,1.39-2.29,2.03-.11-.12-.22-.25-.33-.37.26-.22.52-.44,1.11-.95-1.51-.07-2.67-.13-4.21-.2,3.07,3.64,4.77,3.97,7.57,1.61ZM46.18,134.62c-.1.42-.21.84-.31,1.26,1.39.78,2.79,1.57,4.18,2.35.34-1.16.68-2.33,1.19-4.09-2.15.2-3.6.34-5.06.48ZM45.05,137.09c-.97-.84-1.69-1.46-2.67-2.3,1.04-.05,1.68-.09,2.36-.12-.31-2.51-2.1-1.94-3.43-1.88-.33.02-.96,1.29-.85,1.87.44,2.29,2.02,2.92,4.58,2.43ZM447.95,130.57c1.78.26,3.72.54,5.66.82.06-.23.12-.46.18-.68-.82-.44-1.64-.88-2.44-1.32q.55-1.43-3.12-1.38c-.07.68-.14,1.34-.27,2.56ZM160.04,126.95c-1.86-1.38-3.4-2.51-5.04-3.72-.62.66-1.26,1.33-2.2,2.32,2.76.25,4.67,2.91,7.24,1.4ZM479.96,131.66c2.82.13,5.31.25,7.8.37-1.27-1.04-2.77-1.25-3.78-2.07-2.06-1.65-2.98-.86-4.02,1.7ZM436.81,130.41c-1.22-1.15-2.37-2.23-3.52-3.31-.17.17-.35.33-.52.5.5.83,1,1.65,1.73,2.87-1.17-.15-1.87-.23-3.51-.44,1.03,1.41,1.65,2.26,1.8,2.47,1.69-.88,2.73-1.42,4.02-2.09ZM96.46,128.91c.68-.58,1.18-1.07,1.74-1.47.55-.39,1.16-.69,1.86-1.09-8.19-.1-8.15-.69-7.96,2.37.92-.65,1.76-1.24,2.72-1.93.56.72,1.01,1.31,1.63,2.11ZM435.18,133.79c2.35,2.47,4.25-.68,6.29-.12-1.19-.86-2.37-1.73-4.17-3.04.25,1.31.36,1.9.47,2.5-.69.17-1.45.36-2.6.65ZM112.17,135.08c0-.25,0-.51,0-.76l-7.34-.48c-.03.25-.06.5-.09.75,1.54.4,3.07.8,4.61,1.2l-.07.75c.96-.49,1.92-.97,2.89-1.46ZM53.98,139.26c.25.22.51.44.76.65.68-.78,1.9-1.55,1.92-2.35.02-.97.15-3.08-2.23-2.32-.15,1.36-.3,2.69-.45,4.01ZM370.17,126.31c.02.47.03.94.05,1.41,2.5-.35,5-.7,7.5-1.05-.03-.35-.07-.69-.1-1.04-2.48.23-4.97.46-7.45.68ZM75.66,129.56c-.29.14-.58.27-.87.41.1.79-.04,2.1.35,2.28,1.17.54,2.54.65,3.83.93.03-.23.07-.45.1-.68-1.14-.98-2.27-1.96-3.41-2.94ZM427.43,133.9c2.19.56,4.4,1.12,6.87,1.75-2.08-2.78-5.42-3.47-6.87-1.75ZM325.06,126.1c.1.28.2.57.31.85,2.83-.43,5.65-.85,8.48-1.28-.04-.27-.08-.54-.13-.81-2.68,1.39-6.08-.64-8.65,1.24ZM374.35,123.53c3.57-.44,6.32-.79,9.47-1.18-1.4-.82-2.38-1.4-2.88-1.69-2.2.96-4.01,1.75-6.59,2.87ZM413.56,124.29c.35,1.77.52,2.64.75,3.79.79-.05,1.73-.07,2.65-.22.07-.01.2-1.19-.05-1.4-.86-.72-1.87-1.25-3.35-2.17ZM196.23,122.82c1.57-.56,2.82-1.01,4.06-1.45-.05-.22-.11-.44-.16-.67-1.61-.13-3.21-.26-5.39-.43.73,1.25,1.07,1.84,1.49,2.55ZM411.76,130.84c-.17.29-.35.57-.52.86,1.77,3.07,2.51,3.39,4.38,1.64-1.35-.87-2.61-1.68-3.86-2.5ZM250.04,128.53c2.62-.82,4.89-1.54,7.16-2.25-2.31.68-5.53-2.18-7.16,2.25ZM69.03,135.29c-.26-.1-.51-.2-.77-.3.07,1.5.1,3,.27,4.49.02.16,1.16.46,1.34.28.33-.35.55-1.07.42-1.52-.29-1.02-.83-1.97-1.26-2.95ZM456.2,124.9c-.48.91-.85,1.63-1.35,2.56,1.64-.17,3.34-.35,5.03-.53-.02-.3-.03-.6-.05-.9-1.18-.37-2.37-.74-3.64-1.14ZM71.94,135.53c3.12,2.23,3.88,2.09,5.16-.46-1.84.16-3.5.31-5.16.46ZM438.27,129.32c-.04.34-.08.67-.13,1.01,1.61.27,3.21.64,4.83.73.47.03.98-.77,1.47-1.19-.52-.04-1.05-.06-1.57-.11-.68-.07-1.36-.17-2.04-.23-.86-.08-1.72-.14-2.58-.21ZM135.49,127.38c0-.31.02-.63.03-.94q-4.04-1.15-5.38.54c2.13.16,3.74.28,5.35.4ZM406.29,128.37c4.98-.8,5.01-.83,5.65-3.67-1.75,1.14-3.45,2.24-5.65,3.67ZM30.48,136.91c.87.83,1.39,1.33,1.92,1.83.31-.47.56-1.01.95-1.39.63-.6,1.35-1.1,2.08-1.68-2.09-1.84-2.91.96-4.95,1.24ZM82.01,134.29c1.34.67,2.68,1.33,4.29,2.13-.17-3.2-1.65-3.64-4.29-2.13Z"></path><path class="cls-1" d="M55.17,126.48c-2.9-.54-6.95-.89-10.76-2.08-6.94-2.16-10.47-7.4-11.47-14.44-.26-1.82-.36-3.66-.54-5.48-.16-1.55.28-2.41,2.09-2.36,3.5.1,7-.07,10.49.12.71.04,1.61,1.06,1.97,1.83.4.87.28,1.98.41,2.98.76,5.67,3.2,8.33,8.1,8.83,5.4.56,9.53-1.6,11.05-5.78,1.72-4.72.21-9.88-4.04-12.59-2.3-1.46-4.91-2.44-7.43-3.51-2.87-1.22-5.84-2.2-8.7-3.45-7.72-3.39-12.38-9.15-12.75-17.73-.33-7.77,1.57-16.1,9.69-20.15,9.3-4.64,18.92-4.4,28.1.28,6.16,3.14,8.33,8.98,8.36,15.7,0,1.68-.74,2.27-2.36,2.22-2.58-.07-5.18-.22-7.73.04-2.85.29-3.85-.86-4.16-3.55-.47-4.14-2.64-6.43-6.39-7.31-3.82-.9-7.94.65-9.67,3.64-2.05,3.53-1.93,9.19.78,11.61,2.14,1.91,4.77,3.39,7.37,4.64,4.21,2.03,8.67,3.57,12.88,5.6,10.87,5.26,12.58,11.99,11.64,21.74-1,10.39-7.04,16.4-17.31,18.17-2.79.48-5.65.61-9.64,1.01Z"></path></svg>