<svg xmlns="http://www.w3.org/2000/svg" id="Layer_1" viewBox="0 0 500 200"><defs><style>.cls-1,.cls-2{fill:#000;stroke-width:0px;}.cls-2{fill-rule:evenodd;}</style></defs><path class="cls-2" d="M313.27,95.21c-8.4,25.78-32.01,45.83-61.93,45.83-31.73,0-53.07-19.78-61.63-45.27,8.91,23.74,33.16,40.77,61.68,40.77s53.14-17.29,61.89-41.33M189.57,55.87c8.44-25.71,28.41-45.57,61.77-45.57,31.02,0,53.81,20.13,62.07,46.13-8.62-24.23-33.14-41.72-62.02-41.72s-53.02,17.21-61.82,41.15"></path><path class="cls-2" d="M252.65,49.52c.4-.59,1.6-.2,2.45-.18,1.15.02.88,1.69,2.46,1.36,1.58-.33,1.6,1.48,3.85,1.42,2.27-.07-.45.78-.45.78,0,0-1.4-.67-2.31-.22-.47.23.18-.13-.62-.78-1.24-1-1.08.19-3.17-1.56-1.47-1.23-2.88.15-2.23-.82M264,95.15c.9.36,2.02,1.24,2.54,2.59,1.22,3.19-.59.6-.59,5.42,0,4.43-1.27,3.71-1.27,3.71,0,0-.28,5.24-3.02,8.46-1.75,1.73-.39,3.17-.39,3.17,0,0-.59.32-1.45,4.12-.27,1.23,1.32,3.13,2.71,2.66,1.03-.35-2.53-.69,1.33-2.3,1.49-.62.27-1.79.27-1.79,0,0,2.5-.18,3.91-3.91,2.49.36,1.56-1.15,6.69-2.23,1.36-.29,1.64-.69,1.47-1.95-.17-1.25,1.67.18,6.75-4.92,4-4.03,2.56-4.93,5.33-6.4,2.92-1.53,3.19.14,4.17-1.12,2.24-2.86,1.45-2.68,2.38-4.5l.66-1.01h-31.49ZM235.84,52.78c-.83-2.02-.78-5.3,1-8.33,1.12-1.89,4.09-2.73,6.68-1.73,2.91-2.26,3.6.17,6.18-.93,3.38-1.45,1.49,3.83,4.76,5.16,1.35-3.56-3.09-6.23-.3-7.9,1.99-1.19,3.49-1.93,4.3-3.54,1.16-2.28,1.62-3.94,2.51-4.25,2.06-.69,1.62-2.62,1.62-2.62,0,0,2.19.64,3.9-.94-1.3-.69-3.21-1.29-2.71-2.67.59-1.63,5.01,1.68,6.31-.99-2.62-1.13-5.31-3.58-6.91-4.15-1.1,1.18-1.79.71-3.21-.4-2.4-1.87-2.6-.09-4.11-1.38-1.2,2.38.6,2.19,1.16,2.78,1.54,1.66-1.56-1.5-1.26,2.75.08,1.1-1.57,1.31-2.8-1.09-.64-1.24-5.75-.98-6.52-2.17.7-1.39,6.71-6.32,15.94-5.14-13.4-5.19-31.51.48-31.69,2.45-1.8,1.12-1.18,2.39-2.08,2.68-1.56.51-3.26,5.21-3.26,5.21,0,0,.97.64-2.06,3.98-2.5,2.75-3.24,6.93-3.24,6.93,0,0,1.65,2.97,1.34,6.4-.24,2.61-.35.68.81,2.57.67,1.11,1.4,4.98,1.85,3.47.85-2.88-1.55-5.55-1.16-8.41.09.36.93-1.13.89.22-.09,3.54,4.42,10.36,4.42,10.36,0,0-1.68,1.68.07,1.68h7.57Z"></path><path class="cls-1" d="M139.8,62.27h-10.18l1.52,1.78v13.17c0,2.96-1.99,4.21-4.96,4.21s-4.96-1.25-4.96-4.21v-13.17l1.52-1.78h-10.18l1.52,1.78v13.38c0,6.57,3.73,9.1,12.1,9.1s12.1-2.53,12.1-9.1v-13.38l1.52-1.78Z"></path><polygon class="cls-1" points="175.12 62.27 166.54 62.27 168.07 64.05 168.07 76.04 155.75 62.27 148.03 62.27 149.56 64.05 149.56 84.29 148.03 86.07 156.61 86.07 155.1 84.29 155.1 72.08 168.17 86.07 173.6 86.07 173.6 64.05 175.12 62.27"></polygon><polygon class="cls-1" points="194.9 86.07 193.38 84.29 193.38 64.05 194.9 62.27 184.65 62.27 186.17 64.05 186.17 84.29 184.65 86.07 194.9 86.07"></polygon><polygon class="cls-1" points="228.7 62.27 220.08 62.27 221.6 64.05 215.52 77.15 209.65 64.05 211.17 62.27 201.03 62.27 212.29 86.07 217.32 86.07 228.7 62.27"></polygon><polygon class="cls-1" points="257.48 86.07 257.48 79.61 255.66 81.11 243.32 81.11 243.32 76.54 251.14 76.54 252.91 78.04 252.91 70.29 251.14 71.79 243.32 71.79 243.32 67.22 255.66 67.22 257.48 68.72 257.48 62.27 234.74 62.27 236.26 64.05 236.26 84.29 234.74 86.07 257.48 86.07"></polygon><path class="cls-2" d="M292.1,86.07l-6.55-9.39c3.22-1.29,5.46-3.75,5.46-7.21,0-3.96-2.46-7.21-9.34-7.21h-15.06l1.52,1.78v20.24l-1.52,1.78h10.1l-1.52-1.78v-6.75h3.04l4.63,6.75-1.52,1.78h10.75ZM283.77,69.97c0,1.71-1.67,3.11-3.99,3.11h-4.59v-5.86h5.46c1.59,0,3.12.79,3.12,2.75"></path><path class="cls-1" d="M322.69,79.11c0-3.78-3.08-5.89-7.54-7.32-2.9-.89-6.99-1.53-6.99-3.43,0-.93,1.12-1.57,3.08-1.57,2.61,0,6.88,1.07,10.21,2.64v-7.95l-1.92,1.82c-2.03-.82-5.54-1.68-7.97-1.68-8.21,0-10.87,3.57-10.87,6.82,0,4.42,2.97,6.35,7.64,7.96,3.47,1.18,6.69,1.28,6.69,3.24,0,1.68-1.99,1.9-3,1.9-2.57,0-7.14-.9-11.19-3.5v8.81l1.92-2.07c1.89.72,6.12,1.93,9.6,1.93,7.13,0,10.32-3.1,10.32-7.6"></path><path class="cls-2" d="M358.81,86.07l-11.88-23.8h-8.15l.87,1.78-10.76,22.02h8.88l-1.52-1.78,1.19-2.5h11.52l1.16,2.5-1.52,1.78h10.22ZM347.19,77.51h-8.01l3.99-8.53,4.02,8.53Z"></path><polygon class="cls-1" points="387.43 86.07 387.43 79.61 385.62 81.11 373.99 81.11 373.99 64.05 375.51 62.27 365.41 62.27 366.93 64.05 366.93 84.29 365.41 86.07 387.43 86.07"></polygon><path class="cls-1" d="M380.98,65.57c0,1.67,1.37,3.01,3.05,3.01s3.06-1.34,3.06-3.01-1.37-3.01-3.06-3.01c-1.68,0-3.05,1.35-3.05,3.01M380.66,65.57c0-1.83,1.51-3.32,3.37-3.32s3.38,1.49,3.38,3.32-1.51,3.33-3.38,3.33-3.37-1.49-3.37-3.33"></path><path class="cls-2" d="M385.3,64.27c-.34-.28-.73-.41-1.17-.41-.99,0-1.73.76-1.73,1.71s.72,1.73,1.72,1.73c.45,0,.89-.16,1.22-.46v-.44c-.31.36-.76.59-1.24.59-.79,0-1.38-.68-1.38-1.43s.59-1.42,1.38-1.42c.48,0,.87.19,1.18.54v-.43h0Z"></path><path class="cls-1" d="M26.72,173.07l-1.05,1.2v9.05c0,1.12-.17,2.07-.5,2.85-.33.78-.83,1.41-1.5,1.89-.67.48-1.52.84-2.56,1.07-1.04.23-2.3.35-3.78.35s-2.73-.12-3.77-.35c-1.04-.23-1.89-.59-2.57-1.07-.68-.48-1.18-1.12-1.51-1.9s-.5-1.73-.5-2.85v-9.05l-1.05-1.2h7.03l-1.05,1.2v8.91c0,.96.3,1.67.91,2.14s1.44.71,2.51.71,1.9-.23,2.51-.7c.61-.47.92-1.18.92-2.15v-8.91l-1.05-1.2h7.02Z"></path><path class="cls-1" d="M53.67,173.07l-1.05,1.2v14.9h-3.76l-9.02-9.46v8.26l1.05,1.2h-5.92l1.05-1.2v-13.7l-1.05-1.2h5.32l8.5,9.32v-8.12l-1.05-1.2h5.93Z"></path><path class="cls-1" d="M69.86,189.17h-7.07l1.05-1.2v-13.7l-1.05-1.2h7.07l-1.05,1.2v13.7l1.05,1.2Z"></path><path class="cls-1" d="M95.83,173.07l-7.85,16.1h-3.48l-7.78-16.1h7.01l-1.05,1.2,4.05,8.86,4.2-8.86-1.05-1.2h5.94Z"></path><path class="cls-1" d="M118.28,189.17h-15.7l1.05-1.2v-13.7l-1.05-1.2h15.7v4.37l-1.26-1.01h-8.52v3.09h5.4l1.23-1.01v5.23l-1.23-1.01h-5.4v3.09h8.52l1.26-1.01v4.37h0Z"></path><path class="cls-1" d="M144.75,189.17h-7.42l1.05-1.2-3.2-4.56h-2.1v4.56l1.05,1.2h-6.97l1.05-1.2v-13.7l-1.05-1.2h10.4c2.25,0,3.88.45,4.91,1.34,1.02.9,1.54,2.07,1.54,3.54,0,1.12-.34,2.1-1.01,2.94-.67.83-1.6,1.48-2.76,1.93l4.52,6.35ZM139,178.28c0-.42-.1-.77-.3-1.05-.2-.27-.46-.48-.79-.61-.33-.13-.68-.19-1.06-.19h-3.77v3.96h3.17c.79,0,1.44-.2,1.97-.61.52-.41.78-.91.78-1.5Z"></path><path class="cls-1" d="M168.43,184.46c0,.78-.14,1.48-.42,2.1-.28.62-.72,1.16-1.31,1.62-.59.45-1.33.81-2.22,1.05-.89.25-1.95.37-3.17.37-.74,0-1.54-.07-2.39-.21-.85-.14-1.67-.32-2.47-.54-.79-.22-1.39-.4-1.78-.55l-1.33,1.4v-5.96c1.27.8,2.62,1.4,4.05,1.79,1.43.39,2.65.58,3.68.58.53,0,1.01-.09,1.43-.26.43-.18.64-.52.64-1.02,0-.4-.19-.71-.56-.92-.37-.21-1.06-.45-2.07-.71-1.01-.26-1.67-.45-2-.56-1.77-.6-3.1-1.29-3.97-2.09-.87-.8-1.31-1.9-1.31-3.3,0-.79.24-1.54.73-2.23s1.29-1.26,2.43-1.71c1.14-.44,2.59-.67,4.35-.67.41,0,.84.03,1.31.09.46.06.98.15,1.54.26.56.12,1.06.24,1.49.37.43.13.82.26,1.16.41l1.33-1.22v5.39c-.79-.36-1.62-.68-2.48-.95-.87-.27-1.7-.48-2.5-.63s-1.49-.22-2.08-.22c-.66,0-1.18.1-1.56.29-.38.2-.57.45-.57.77s.14.56.43.78c.28.22.65.41,1.09.57.44.16,1.02.34,1.73.53.71.19,1.23.34,1.57.44,1.67.52,2.95,1.18,3.85,1.96s1.35,1.78,1.35,2.99Z"></path><path class="cls-1" d="M195.96,189.17h-7.06l1.05-1.2-.79-1.7h-7.96l-.82,1.7,1.05,1.2h-6.13l7.42-14.9-.6-1.2h5.63l8.2,16.1ZM187.93,183.37l-2.77-5.76-2.75,5.76h5.52Z"></path><path class="cls-1" d="M218.28,189.17h-15.2l1.05-1.2v-13.7l-1.05-1.2h6.97l-1.05,1.2v11.54h8.02l1.26-1.01v4.37h0Z"></path><path class="cls-1" d="M260.08,189.17h-6.82l1.05-1.2v-7.73l-4.42,8.93h-2.33l-4.99-9.08v7.87l1.05,1.2h-5.77l1.05-1.2v-13.7l-1.05-1.2h5.87l5.42,9.85,4.96-9.85h5.99l-1.05,1.2v13.7l1.05,1.2Z"></path><path class="cls-1" d="M287.13,173.07l-1.05,1.2v9.05c0,1.12-.17,2.07-.5,2.85-.33.78-.83,1.41-1.5,1.89-.67.48-1.52.84-2.56,1.07-1.04.23-2.3.35-3.78.35s-2.73-.12-3.77-.35c-1.04-.23-1.89-.59-2.57-1.07-.68-.48-1.18-1.12-1.51-1.9s-.5-1.73-.5-2.85v-9.05l-1.05-1.2h7.03l-1.05,1.2v8.91c0,.96.3,1.67.91,2.14s1.44.71,2.51.71,1.9-.23,2.51-.7c.61-.47.92-1.18.92-2.15v-8.91l-1.05-1.2h7.02Z"></path><path class="cls-1" d="M310.3,184.46c0,.78-.14,1.48-.42,2.1-.28.62-.72,1.16-1.31,1.62-.59.45-1.33.81-2.22,1.05-.89.25-1.95.37-3.17.37-.74,0-1.54-.07-2.39-.21-.85-.14-1.67-.32-2.47-.54-.79-.22-1.39-.4-1.78-.55l-1.33,1.4v-5.96c1.27.8,2.62,1.4,4.05,1.79,1.43.39,2.66.58,3.68.58.53,0,1.01-.09,1.44-.26.43-.18.64-.52.64-1.02,0-.4-.19-.71-.56-.92-.37-.21-1.06-.45-2.07-.71-1-.26-1.67-.45-2-.56-1.77-.6-3.1-1.29-3.97-2.09-.87-.8-1.31-1.9-1.31-3.3,0-.79.24-1.54.73-2.23s1.29-1.26,2.43-1.71c1.14-.44,2.59-.67,4.35-.67.41,0,.84.03,1.31.09.46.06.98.15,1.54.26.56.12,1.06.24,1.49.37.43.13.82.26,1.16.41l1.33-1.22v5.39c-.79-.36-1.62-.68-2.48-.95-.87-.27-1.7-.48-2.5-.63-.8-.15-1.49-.22-2.08-.22-.66,0-1.18.1-1.56.29-.38.2-.57.45-.57.77s.14.56.43.78c.28.22.65.41,1.09.57.44.16,1.02.34,1.73.53.71.19,1.24.34,1.57.44,1.67.52,2.95,1.18,3.85,1.96.9.78,1.35,1.78,1.35,2.99Z"></path><path class="cls-1" d="M326.25,189.17h-7.07l1.05-1.2v-13.7l-1.05-1.2h7.07l-1.05,1.2v13.7l1.05,1.2Z"></path><path class="cls-1" d="M350.7,188.01c-.31.17-.7.35-1.18.52-.48.17-1.01.33-1.59.46-.58.14-1.2.25-1.87.35-.67.09-1.31.14-1.91.14-1.3,0-2.53-.16-3.68-.48-1.15-.32-2.18-.82-3.08-1.51-.9-.68-1.6-1.56-2.12-2.64-.51-1.08-.77-2.33-.77-3.75,0-1.18.21-2.28.65-3.3.43-1.02,1.07-1.91,1.92-2.67.85-.76,1.88-1.35,3.11-1.76,1.23-.42,2.62-.63,4.18-.63.62,0,1.25.04,1.89.12.64.08,1.24.19,1.78.31.54.13,1.04.27,1.51.43l1.15-1.06v5.36c-.62-.37-1.24-.68-1.87-.93-.63-.25-1.3-.44-2-.57-.7-.13-1.43-.2-2.19-.2-1.65,0-2.88.46-3.69,1.37-.81.91-1.21,2.08-1.21,3.51,0,.97.21,1.82.62,2.56s1.01,1.32,1.78,1.73c.77.41,1.66.61,2.65.61.92,0,1.76-.09,2.52-.28s1.39-.41,1.89-.65c.5-.25,1-.52,1.51-.83v3.77h0Z"></path><path class="cls-1" d="M383.25,182.41l-1.07-1.24h5.94v6.45c-.35.21-.81.43-1.38.65-.57.22-1.21.43-1.92.61-.71.18-1.42.33-2.15.44-.72.11-1.43.16-2.12.16-1.75,0-3.38-.29-4.88-.88-1.51-.59-2.71-1.51-3.61-2.77-.9-1.26-1.36-2.83-1.36-4.73s.48-3.47,1.43-4.73c.95-1.26,2.18-2.18,3.69-2.76,1.51-.58,3.09-.87,4.73-.87,1.17,0,2.14.09,2.91.27.76.18,1.63.43,2.59.75l1.33-1.2v5.53c-1.07-.58-2.13-1.04-3.19-1.37-1.06-.33-2.19-.49-3.39-.49-.76,0-1.45.11-2.05.35s-1.11.56-1.53,1c-.42.43-.74.94-.96,1.54-.22.59-.33,1.26-.33,2,0,1.49.43,2.67,1.3,3.56.87.89,2.06,1.34,3.57,1.34.62,0,1.44-.09,2.45-.27v-3.32Z"></path><path class="cls-1" d="M413.85,189.17h-7.42l1.05-1.2-3.2-4.56h-2.1v4.56l1.05,1.2h-6.97l1.05-1.2v-13.7l-1.05-1.2h10.4c2.25,0,3.88.45,4.91,1.34,1.02.9,1.54,2.07,1.54,3.54,0,1.12-.34,2.1-1.01,2.94-.68.83-1.6,1.48-2.76,1.93l4.52,6.35ZM408.1,178.28c0-.42-.1-.77-.3-1.05-.2-.27-.46-.48-.79-.61-.33-.13-.68-.19-1.06-.19h-3.77v3.96h3.17c.79,0,1.44-.2,1.97-.61.52-.41.78-.91.78-1.5Z"></path><path class="cls-1" d="M440.89,181.1c0,1.93-.46,3.54-1.37,4.81-.91,1.27-2.09,2.2-3.55,2.79-1.45.59-3.02.88-4.69.88s-3.23-.29-4.69-.88c-1.46-.59-2.65-1.52-3.57-2.8-.92-1.28-1.38-2.87-1.38-4.79,0-1.47.27-2.75.81-3.83.54-1.09,1.27-1.97,2.2-2.65.92-.68,1.95-1.18,3.08-1.5,1.13-.32,2.31-.48,3.55-.48s2.45.16,3.58.48c1.13.32,2.15.82,3.06,1.49.91.67,1.63,1.55,2.17,2.64.54,1.09.81,2.37.81,3.84ZM435.66,181.1c0-1.56-.35-2.78-1.06-3.66-.7-.88-1.81-1.31-3.33-1.31-1,0-1.83.2-2.49.61-.66.4-1.14.98-1.45,1.72-.31.74-.46,1.62-.46,2.65,0,.74.08,1.42.25,2.04.17.62.43,1.15.79,1.59.36.44.82.78,1.38,1.01.56.24,1.21.35,1.97.35s1.43-.12,1.98-.35c.56-.24,1.01-.57,1.37-1.01s.61-.96.78-1.56c.17-.6.25-1.29.25-2.07Z"></path><path class="cls-1" d="M466.98,173.07l-1.05,1.2v9.05c0,1.12-.17,2.07-.5,2.85-.33.78-.83,1.41-1.5,1.89-.67.48-1.52.84-2.56,1.07-1.04.23-2.3.35-3.78.35s-2.73-.12-3.77-.35c-1.04-.23-1.89-.59-2.57-1.07-.68-.48-1.18-1.12-1.51-1.9s-.5-1.73-.5-2.85v-9.05l-1.05-1.2h7.03l-1.05,1.2v8.91c0,.96.3,1.67.91,2.14s1.44.71,2.51.71,1.9-.23,2.51-.7c.61-.47.92-1.18.92-2.15v-8.91l-1.05-1.2h7.02Z"></path><path class="cls-1" d="M492.08,178.41c0,2.31-.74,3.9-2.23,4.77-1.48.87-3.42,1.31-5.79,1.31h-2.91v3.48l1.05,1.2h-6.97l1.05-1.2v-13.7l-1.05-1.2h8.97c1.31,0,2.55.15,3.72.45,1.17.3,2.16.84,2.95,1.64.8.79,1.2,1.88,1.2,3.25ZM487,178.69c0-.84-.26-1.43-.79-1.76-.52-.33-1.28-.5-2.26-.5h-2.8v4.87h2.36c1.2,0,2.08-.19,2.64-.56.57-.38.85-1.06.85-2.04Z"></path></svg>