<svg xmlns="http://www.w3.org/2000/svg" xmlns:xlink="http://www.w3.org/1999/xlink" clip-rule="evenodd" fill-rule="evenodd" height="512" viewBox="0 0 43.3492 43.3492" width="512"><linearGradient id="id0" gradientUnits="userSpaceOnUse" x1="-1.209" x2="44.558" y1="16.544" y2="26.806"><stop offset="0" stop-color="#f4505d"></stop><stop offset=".501961" stop-color="#be73ed"></stop><stop offset="1" stop-color="#15c0e9"></stop></linearGradient><g id="Layer_x0020_1"><path d="m2.0424 15.9279c-.7585 0-1.3756.6172-1.3756 1.3757v13.1597h13.1538v-13.1597c0-.7585-.6171-1.3756-1.3756-1.3756h-1.3932-.002-1.592-.0018-.0019zm37.7448 4.7132h-1.7126c-.1841 0-.3333-.1491-.3333-.3333s.1492-.3334.3333-.3334l1.7126-.0001c.1841 0 .3334.1494.3334.3335s-.1493.3335-.3334.3333zm-31.3627 12.1167h-2.3617c-.1841 0-.3334-.1493-.3334-.3334 0-.1842.1493-.3334.3334-.3334l2.3617-.0001c.1842 0 .3335.1493.3335.3335 0 .1841-.1493.3334-.3335.3334zm31.3627.3071h-1.7126c-.1841 0-.3333-.1492-.3333-.3334s.1492-.3334.3333-.3334l1.7126-.0001c.1841 0 .3334.1494.3334.3335s-.1493.3335-.3334.3334zm2.8952-1.3206h-7.503v1.2975c0 .3732.3037.6768.6769.6768h6.1493c.3732 0 .6768-.3035.6768-.6767zm-7.503-.6668h7.503v-10.9898c0-.3732-.3036-.6767-.6768-.6767l-6.1493-.0001c-.3732 0-.6769.3038-.6769.6769zm6.8262 3.3079h-6.1493c-.7409 0-1.3437-.6026-1.3437-1.3435v-1.631-2.2426h-7.6366c-.1703 1.211-.2639 3.1742 2.2609 4.5931.1321.0742.1976.2285.1591.3751-.0383.1467-.1708.249-.3225.2489h-10.4555c-.1517 0-.2842-.1022-.3226-.2489s.027-.3007.1592-.3751c2.5246-1.419 2.4312-3.382 2.2609-4.5931h-6.1281v1.6284 1.5463c0 1.1263-.9162 2.0425-2.0424 2.0424h-10.4026c-1.1262 0-2.0425-.9161-2.0425-2.0423v-15.0395c0-1.1262.9163-2.0425 2.0425-2.0425h7.0802v-4.6994c0-.8809.7168-1.5978 1.598-1.5978l26.0503-.0002c.8811 0 1.598.7171 1.598 1.5982v8.1822l3.6367-.0001c.7409 0 1.3436.6029 1.3436 1.3438v12.954c0 .7409-.6027 1.3437-1.3436 1.3436zm-7.493-5.8839v-.928h-20.0252v.928zm0-1.5949v-6.8189c0-.7409.6027-1.3436 1.3437-1.3436h.2509v-7.5187h-24.723v4.0357h1.0608c1.1262 0 2.0424.9163 2.0424 2.0425v9.6031zm2.2614-8.1625h.928v-8.1824c0-.5132-.4177-.9309-.9311-.9309h-26.0503c-.5135 0-.9312.4177-.9312.9311v4.6992h.928v-4.369c0-.1842.1493-.3333.3334-.3333l25.3899-.0002c.1841 0 .3333.1494.3333.3336zm-15.4859 10.4242c.1446 1.1159.2004 3.0276-1.6795 4.5503h8.2742c-1.8799-1.5228-1.8241-3.4344-1.6794-4.5503zm-20.6213 1.9616v1.2131c0 .7586.6171 1.3756 1.3756 1.3756h10.4026c.7585 0 1.3756-.617 1.3756-1.3755v-1.2132z" fill="url(#id0)"></path></g></svg>