<svg xmlns="http://www.w3.org/2000/svg" xmlns:xlink="http://www.w3.org/1999/xlink" id="Layer_1" height="512" viewBox="0 0 491.5 491.5" width="512"><linearGradient id="SVGID_1_" gradientUnits="userSpaceOnUse" x1="245.8" x2="245.8" y1="33" y2="458.5"><stop offset="0" stop-color="#f704fe"></stop><stop offset="1" stop-color="#24bce3"></stop></linearGradient><path d="m106.3 314.8 7.3-27.1c1.2-4.3-1.4-8.8-5.7-10s-8.8 1.4-10 5.8l-2.2 8c-11.5-23.2-17.5-48.7-17.5-74.7 0-92.4 75.2-167.6 167.6-167.6s167.6 75.2 167.6 167.6c0 32.5-9.4 64.1-27.1 91.4-2.4 3.8-1.4 8.8 2.4 11.3 3.8 2.4 8.8 1.4 11.3-2.4 19.4-29.9 29.7-64.6 29.7-100.3-.1-101.3-82.5-183.8-183.9-183.8s-183.9 82.5-183.9 183.9c0 28.9 6.7 57.2 19.7 82.9l-8.2-2.2c-4.3-1.2-8.8 1.4-10 5.8-1.2 4.3 1.4 8.8 5.7 10l27.1 7.3c4.5 1 9-1.6 10.1-5.9zm-25.4 143.7h57.1c0-34.8 0-69.7 0-104.5h-57.1zm230.1-98.6 44.1-23.3c-.3-1.2-.8-2.4-1.5-3.5-3.1-4.5-8.8-4.4-13.1-2l-60.8 32.1c6.9-.2 15.5-1.2 26-3.2 1.7-.2 3.5-.3 5.3-.1zm73.4-9.9c.9-2.7.5-6-1.2-8.4-3.1-4.4-8.9-4.4-13-2-16.1 8.8-32.5 17.2-48.8 25.7 4.2 4.2 6.8 10.3 6.7 16.3zm8.1 6.5-69.7 39.1c-2.5 2.9-5.8 5.2-9.6 6.6-15.9 5.5-35.5 7.7-54.1 7.7-13.9 0-27.3-1.2-37.9-3.2-2.6-.5-4.3-3-3.8-5.6s3-4.3 5.6-3.8c23.7 4.4 61.1 4.9 87.2-4.1 5.1-1.8 8.5-6.7 8.4-12-.1-5.4-4.9-12.7-10.9-11.5-31.4 6.2-51.6 4.1-61.6-6.3-12.8-13.3-38.8-17.1-54.7-8-14.8 8.4-26.4 14.7-43.6 18.2v60.4c17.1-8.9 45.2-7.5 60 5.4 21.2 17 34.5 15.7 54 11.4 28.2-6.2 41.9-14.5 64.6-28.3 3.2-1.9 6.6-4 10.2-6.1l69.6-41.6c2.2-1.3 3.8-3.6 4.4-6.3.1-.7.2-1.3.3-2 .1-2.5-.6-5.1-2.1-7.1-4.1-5.8-11.2-5.8-16.3-2.9zm-173.7-212.5h-104.2v120.9h104.2c-4.1-3.1-7.8-6.9-11.1-11.3h-77c-2.7 0-4.8-2.1-4.8-4.8v-88.7c0-2.6 2.1-4.8 4.8-4.8h77c3.3-4.4 7-8.2 11.1-11.3zm-83.3 20.9v79.1h66.2c-5.9-11.3-9.4-24.9-9.4-39.5s3.5-28.3 9.4-39.5zm110.1 100c29.7.1 44-35.3 44-60.4 0-24.6-14-60.4-43.8-60.4-29.9 0-43.8 35.9-43.8 60.4-.1 24.9 14.1 60.2 43.6 60.4zm-4.6-99.2v-6.6c0-2.6 2.1-4.8 4.8-4.8s4.8 2.1 4.8 4.8v6.6c9.8 2.2 17.2 11 17.2 21.5 0 2.6-2.2 4.8-4.8 4.8s-4.8-2.1-4.8-4.8c0-5.1-3.1-9.5-7.6-11.4v24.3c9.8 2.2 17.2 11 17.2 21.5s-7.4 19.3-17.2 21.5v6.6c0 2.7-2.2 4.8-4.8 4.8s-4.8-2.1-4.8-4.8v-6.6c-9.8-2.2-17.2-11-17.2-21.5 0-2.7 2.1-4.8 4.8-4.8s4.8 2.2 4.8 4.8c0 5.1 3.1 9.5 7.6 11.4v-24.3c-9.9-2.2-17.2-11-17.2-21.5s7.4-19.3 17.2-21.5zm115 78.3v-79.1h-66.2c5.9 11.3 9.4 24.9 9.4 39.5 0 14.7-3.5 28.3-9.4 39.5zm20.9-100h-104.2c4.1 3.1 7.8 6.9 11.1 11.3h77c2.7 0 4.8 2.2 4.8 4.8v88.7c0 2.6-2.2 4.8-4.8 4.8h-77c-3.3 4.4-7 8.2-11.1 11.3h104.2zm-135.9 54.6v-22.8c-4.5 1.9-7.6 6.3-7.6 11.4s3.1 9.5 7.6 11.4zm17.1 23c0-5.1-3.1-9.5-7.6-11.4v22.8c4.5-1.9 7.6-6.3 7.6-11.4z" fill="url(#SVGID_1_)"></path></svg>