<?xml version="1.0" encoding="UTF-8"?> <svg xmlns="http://www.w3.org/2000/svg" width="28" height="28" viewBox="0 0 28 28" fill="none"><path d="M20.4781 2.1699C18.4183 1.06334 16.1363 0.5 13.612 0.5C11.0877 0.5 8.80569 1.06334 6.74586 2.1699C4.68602 3.29657 3.07046 4.86587 1.89918 6.91803C0.727903 8.97019 0.12207 11.3241 0.12207 14C0.12207 16.6759 0.707711 19.0298 1.8588 21.082C3.00988 23.1341 4.60524 24.7034 6.62469 25.8301C8.64413 26.9367 10.9059 27.5 13.4504 27.5C15.9949 27.5 18.3173 26.9367 20.3771 25.8301C22.437 24.7235 24.0929 23.1341 25.3046 21.082C26.5162 19.0298 27.1221 16.6759 27.1221 14C27.1221 11.3241 26.5364 8.97019 25.345 6.91803C24.1535 4.86587 22.5379 3.29657 20.4983 2.1699H20.4781ZM7.37188 20.7802L10.1991 6.09315L22.1744 13.4367L7.37188 20.7802Z" fill="#BDF564"></path></svg> 